<?xml version="1.0" encoding="UTF-8"?>
<svg id="plane" xmlns="http://www.w3.org/2000/svg" xmlns:xlink="http://www.w3.org/1999/xlink" version="1.1" viewBox="0 0 340.09 331.43">
  <!-- Generator: Adobe Illustrator 29.0.0, SVG Export Plug-In . SVG Version: 2.1.0 Build 186)  -->
  <defs>
    <style>
      .st0 {
        fill: #005d8c;
      }

      .st1 {
        fill: #dc2729;
      }

      .st1, .st2, .st3 {
        font-family: Krungthep, Krungthep;
        font-size: 36px;
      }

      .st1, .st2, .st3, .st4 {
        isolation: isolate;
      }

      .st5 {
        fill: url(#linear-gradient2);
      }

      .st6 {
        fill: url(#linear-gradient1);
      }

      .st7 {
        fill: url(#linear-gradient9);
      }

      .st8 {
        fill: url(#linear-gradient3);
      }

      .st9 {
        fill: url(#linear-gradient6);
      }

      .st10 {
        fill: url(#linear-gradient8);
      }

      .st11 {
        fill: url(#linear-gradient7);
      }

      .st12 {
        fill: url(#linear-gradient5);
      }

      .st13 {
        fill: url(#linear-gradient4);
      }

      .st14 {
        fill: url(#linear-gradient13);
      }

      .st15 {
        fill: url(#linear-gradient12);
      }

      .st16 {
        fill: url(#linear-gradient15);
      }

      .st17 {
        fill: url(#linear-gradient11);
      }

      .st18 {
        fill: url(#linear-gradient10);
      }

      .st19 {
        fill: url(#linear-gradient14);
      }

      .st2, .st20 {
        fill: #d9367c;
      }

      .st21 {
        fill: #cda44b;
      }

      .st22 {
        fill: #f7e79b;
      }

      .st23, .st3, .st24 {
        fill: none;
        stroke: #231f20;
      }

      .st23, .st3, .st24, .st25 {
        stroke-miterlimit: 10;
      }

      .st26 {
        fill: #c4792a;
      }

      .st27 {
        fill: #f7ca3c;
      }

      .st28 {
        fill: url(#linear-gradient);
      }

      .st29 {
        fill: #4a2d12;
      }

      .st30 {
        fill: #a46026;
      }

      .st31 {
        fill: #938f8f;
      }

      .st24, .st25 {
        stroke-width: 5px;
      }

      .st32, .st25 {
        fill: #fff;
      }

      .st33 {
        fill: #6e4b1d;
      }

      .st34 {
        fill: #e8ce7c;
      }

      .st25 {
        stroke: #100d0e;
      }

      .st35 {
        fill: #fbf6d5;
      }

      .st36 {
        fill: #deba5b;
      }

      .st37 {
        fill: #fdcf92;
      }

      .st38 {
        fill: #c58b41;
      }

      .st39 {
        fill: #984a22;
      }

      .st40 {
        fill: #95371f;
      }

      .st41 {
        fill: #a3712a;
      }
    </style>
    <linearGradient id="linear-gradient" x1="315.33" y1="-550.75" x2="316.33" y2="-550.75" gradientTransform="translate(-248.87 -1040.6) rotate(7.23) scale(2.16 -2.16)" gradientUnits="userSpaceOnUse">
      <stop offset="0" stop-color="#d2a441"/>
      <stop offset="1" stop-color="#e8cd71"/>
    </linearGradient>
    <linearGradient id="linear-gradient1" x1="338.82" y1="-311.99" x2="339.82" y2="-311.99" gradientTransform="translate(934.15 -2646.17) rotate(60.25) scale(6.38 -6.38)" gradientUnits="userSpaceOnUse">
      <stop offset="0" stop-color="#efdd8d"/>
      <stop offset="1" stop-color="#e2a353"/>
    </linearGradient>
    <linearGradient id="linear-gradient2" x1="300.53" y1="-262.2" x2="301.53" y2="-262.2" gradientTransform="translate(3806.63 -3031.63) rotate(96.19) scale(12.01 -12.01)" gradientUnits="userSpaceOnUse">
      <stop offset="0" stop-color="#dcba61"/>
      <stop offset=".78" stop-color="#c68e2b"/>
      <stop offset="1" stop-color="#c68e2b"/>
    </linearGradient>
    <linearGradient id="linear-gradient3" x1="333.18" y1="-333.01" x2="334.18" y2="-333.01" gradientTransform="translate(422.29 -2619) rotate(48.1) scale(6.03 -6.03)" gradientUnits="userSpaceOnUse">
      <stop offset="0" stop-color="#fae18c"/>
      <stop offset="1" stop-color="#fcf9d9"/>
    </linearGradient>
    <linearGradient id="linear-gradient4" x1="450.75" y1="-239.62" x2="451.75" y2="-239.62" gradientTransform="translate(1079 -1105.26) rotate(93.39) scale(3.04 -3.04)" gradientUnits="userSpaceOnUse">
      <stop offset="0" stop-color="#d3ad5e"/>
      <stop offset="1" stop-color="#c1892d"/>
    </linearGradient>
    <linearGradient id="linear-gradient5" x1="245.59" y1="-433.92" x2="246.59" y2="-433.92" gradientTransform="translate(-878.11 -1312.36) rotate(-7.61) scale(3.83 -3.83)" gradientUnits="userSpaceOnUse">
      <stop offset="0" stop-color="#dabb63"/>
      <stop offset="1" stop-color="#f9eba2"/>
    </linearGradient>
    <linearGradient id="linear-gradient6" x1="324.29" y1="-263.25" x2="325.29" y2="-263.25" gradientTransform="translate(2535.49 -2414.22) rotate(91.59) scale(8.27 -8.27)" gradientUnits="userSpaceOnUse">
      <stop offset="0" stop-color="#dcc261"/>
      <stop offset=".69" stop-color="#f8eead"/>
      <stop offset="1" stop-color="#fefef9"/>
    </linearGradient>
    <linearGradient id="linear-gradient7" x1="291.55" y1="-221.14" x2="292.55" y2="-221.14" gradientTransform="translate(3673.7 -225.72) rotate(135.47) scale(9.33 -9.33)" gradientUnits="userSpaceOnUse">
      <stop offset="0" stop-color="#f6bd75"/>
      <stop offset=".82" stop-color="#c79a4b"/>
      <stop offset="1" stop-color="#c79a4b"/>
    </linearGradient>
    <linearGradient id="linear-gradient8" x1="253.41" y1="-558.24" x2="254.41" y2="-558.24" gradientTransform="translate(-596.91 -923.5) rotate(-5.29) scale(2.16 -2.16)" gradientUnits="userSpaceOnUse">
      <stop offset="0" stop-color="#d2a441"/>
      <stop offset="1" stop-color="#e8cd71"/>
    </linearGradient>
    <linearGradient id="linear-gradient9" x1="328.25" y1="-330.22" x2="329.25" y2="-330.22" gradientTransform="translate(209.73 -2747.35) rotate(47.73) scale(6.38 -6.38)" gradientUnits="userSpaceOnUse">
      <stop offset="0" stop-color="#efdd8d"/>
      <stop offset="1" stop-color="#e2a353"/>
    </linearGradient>
    <linearGradient id="linear-gradient10" x1="301.68" y1="-273.32" x2="302.68" y2="-273.32" gradientTransform="translate(2930.16 -3746.56) rotate(83.67) scale(12.01 -12.01)" gradientUnits="userSpaceOnUse">
      <stop offset="0" stop-color="#dcba61"/>
      <stop offset=".78" stop-color="#c68e2b"/>
      <stop offset="1" stop-color="#c68e2b"/>
    </linearGradient>
    <linearGradient id="linear-gradient11" x1="318.16" y1="-349.52" x2="319.16" y2="-349.52" gradientTransform="translate(-284.05 -2609.83) rotate(35.58) scale(6.03 -6.03)" gradientUnits="userSpaceOnUse">
      <stop offset="0" stop-color="#fae18c"/>
      <stop offset="1" stop-color="#fcf9d9"/>
    </linearGradient>
    <linearGradient id="linear-gradient12" x1="453.11" y1="-283.82" x2="454.11" y2="-283.82" gradientTransform="translate(685.28 -1274.58) rotate(80.87) scale(3.04 -3.04)" gradientUnits="userSpaceOnUse">
      <stop offset="0" stop-color="#d3ad5e"/>
      <stop offset="1" stop-color="#c1892d"/>
    </linearGradient>
    <linearGradient id="linear-gradient13" x1="210.75" y1="-429.14" x2="211.75" y2="-429.14" gradientTransform="translate(-1270.16 -1052.51) rotate(-20.14) scale(3.83 -3.83)" gradientUnits="userSpaceOnUse">
      <stop offset="0" stop-color="#dabb63"/>
      <stop offset="1" stop-color="#f9eba2"/>
    </linearGradient>
    <linearGradient id="linear-gradient14" x1="324.65" y1="-279.5" x2="325.65" y2="-279.5" gradientTransform="translate(1823.21 -2868.2) rotate(79.07) scale(8.27 -8.27)" gradientUnits="userSpaceOnUse">
      <stop offset="0" stop-color="#dcc261"/>
      <stop offset=".69" stop-color="#f8eead"/>
      <stop offset="1" stop-color="#fefef9"/>
    </linearGradient>
    <linearGradient id="linear-gradient15" x1="301.79" y1="-231.38" x2="302.79" y2="-231.38" gradientTransform="translate(3409.25 -978.44) rotate(122.94) scale(9.33 -9.33)" gradientUnits="userSpaceOnUse">
      <stop offset="0" stop-color="#f6bd75"/>
      <stop offset=".82" stop-color="#c79a4b"/>
      <stop offset="1" stop-color="#c79a4b"/>
    </linearGradient>
  </defs>
  <ellipse class="st25" cx="170.05" cy="165.72" rx="144.92" ry="147.6"/>
  <g class="st4">
    <g class="st4">
      <text class="st1" transform="translate(66.4 138.38) rotate(-69.8) scale(1.33 1)"><tspan x="0" y="0">T</tspan></text>
    </g>
  </g>
  <g class="st4">
    <g class="st4">
      <text class="st2" transform="translate(66.4 138.38) rotate(-69.8) scale(1.33 1)"><tspan x="0" y="0">T</tspan></text>
    </g>
    <g class="st4">
      <text class="st3" transform="translate(66.4 138.38) rotate(-69.8) scale(1.33 1)"><tspan x="0" y="0">T</tspan></text>
    </g>
  </g>
  <g class="st4">
    <g class="st4">
      <text class="st1" transform="translate(73.43 116.97) rotate(-55.84) scale(1.33 1)"><tspan x="0" y="0">A</tspan></text>
    </g>
  </g>
  <g class="st4">
    <g class="st4">
      <text class="st2" transform="translate(73.43 116.97) rotate(-55.84) scale(1.33 1)"><tspan x="0" y="0">A</tspan></text>
    </g>
    <g class="st4">
      <text class="st3" transform="translate(73.43 116.97) rotate(-55.84) scale(1.33 1)"><tspan x="0" y="0">A</tspan></text>
    </g>
  </g>
  <g class="st4">
    <g class="st4">
      <text class="st1" transform="translate(89.94 91.59) rotate(-38.39) scale(1.33 1)"><tspan x="0" y="0">K</tspan></text>
    </g>
  </g>
  <g class="st4">
    <g class="st4">
      <text class="st2" transform="translate(89.94 91.59) rotate(-38.39) scale(1.33 1)"><tspan x="0" y="0">K</tspan></text>
    </g>
    <g class="st4">
      <text class="st3" transform="translate(89.94 91.59) rotate(-38.39) scale(1.33 1)"><tspan x="0" y="0">K</tspan></text>
    </g>
  </g>
  <g class="st4">
    <g class="st4">
      <text class="st1" transform="translate(117.01 70.62) rotate(-21.98) scale(1.33 1)"><tspan x="0" y="0">E</tspan></text>
    </g>
  </g>
  <g class="st4">
    <g class="st4">
      <text class="st2" transform="translate(117.01 70.62) rotate(-21.98) scale(1.33 1)"><tspan x="0" y="0">E</tspan></text>
    </g>
    <g class="st4">
      <text class="st3" transform="translate(117.01 70.62) rotate(-21.98) scale(1.33 1)"><tspan x="0" y="0">E</tspan></text>
    </g>
  </g>
  <g class="st4">
    <g class="st4">
      <text class="st1" transform="translate(152.28 58.33) rotate(-1.51) scale(1.33 1)"><tspan x="0" y="0">F</tspan></text>
    </g>
  </g>
  <g class="st4">
    <g class="st4">
      <text class="st2" transform="translate(152.28 58.33) rotate(-1.51) scale(1.33 1)"><tspan x="0" y="0">F</tspan></text>
    </g>
    <g class="st4">
      <text class="st3" transform="translate(152.28 58.33) rotate(-1.51) scale(1.33 1)"><tspan x="0" y="0">F</tspan></text>
    </g>
  </g>
  <g class="st4">
    <g class="st4">
      <text class="st1" transform="translate(178.89 57.36) rotate(12.52) scale(1.33 1)"><tspan x="0" y="0">L</tspan></text>
    </g>
  </g>
  <g class="st4">
    <g class="st4">
      <text class="st2" transform="translate(178.89 57.36) rotate(12.52) scale(1.33 1)"><tspan x="0" y="0">L</tspan></text>
    </g>
    <g class="st4">
      <text class="st3" transform="translate(178.89 57.36) rotate(12.52) scale(1.33 1)"><tspan x="0" y="0">L</tspan></text>
    </g>
  </g>
  <g class="st4">
    <g class="st4">
      <text class="st1" transform="translate(204.8 63.22) rotate(25.15) scale(1.33 1)"><tspan x="0" y="0">I</tspan></text>
    </g>
  </g>
  <g class="st4">
    <g class="st4">
      <text class="st2" transform="translate(204.8 63.22) rotate(25.15) scale(1.33 1)"><tspan x="0" y="0">I</tspan></text>
    </g>
    <g class="st4">
      <text class="st3" transform="translate(204.8 63.22) rotate(25.15) scale(1.33 1)"><tspan x="0" y="0">I</tspan></text>
    </g>
  </g>
  <g class="st4">
    <g class="st4">
      <text class="st1" transform="translate(225.55 72.39) rotate(38.52) scale(1.33 1)"><tspan x="0" y="0">G</tspan></text>
    </g>
  </g>
  <g class="st4">
    <g class="st4">
      <text class="st2" transform="translate(225.55 72.39) rotate(38.52) scale(1.33 1)"><tspan x="0" y="0">G</tspan></text>
    </g>
    <g class="st4">
      <text class="st3" transform="translate(225.55 72.39) rotate(38.52) scale(1.33 1)"><tspan x="0" y="0">G</tspan></text>
    </g>
  </g>
  <g class="st4">
    <g class="st4">
      <text class="st1" transform="translate(249.35 91.05) rotate(53.57) scale(1.33 1)"><tspan x="0" y="0">H</tspan></text>
    </g>
  </g>
  <g class="st4">
    <g class="st4">
      <text class="st2" transform="translate(249.35 91.05) rotate(53.57) scale(1.33 1)"><tspan x="0" y="0">H</tspan></text>
    </g>
    <g class="st4">
      <text class="st3" transform="translate(249.35 91.05) rotate(53.57) scale(1.33 1)"><tspan x="0" y="0">H</tspan></text>
    </g>
  </g>
  <g class="st4">
    <g class="st4">
      <text class="st1" transform="translate(267.3 115.86) rotate(66.44) scale(1.33 1)"><tspan x="0" y="0">T</tspan></text>
    </g>
  </g>
  <g class="st4">
    <g class="st4">
      <text class="st2" transform="translate(267.3 115.86) rotate(66.44) scale(1.33 1)"><tspan x="0" y="0">T</tspan></text>
    </g>
    <g class="st4">
      <text class="st3" transform="translate(267.3 115.86) rotate(66.44) scale(1.33 1)"><tspan x="0" y="0">T</tspan></text>
    </g>
  </g>
  <g class="st4">
    <g class="st4">
      <text class="st1" transform="translate(89.1 273.74) rotate(32.45) scale(1.51 1)"><tspan x="0" y="0">T</tspan></text>
    </g>
  </g>
  <g class="st4">
    <g class="st4">
      <text class="st2" transform="translate(89.1 273.74) rotate(32.45) scale(1.51 1)"><tspan x="0" y="0">T</tspan></text>
    </g>
    <g class="st4">
      <text class="st3" transform="translate(89.1 273.74) rotate(32.45) scale(1.51 1)"><tspan x="0" y="0">T</tspan></text>
    </g>
  </g>
  <g class="st4">
    <g class="st4">
      <text class="st1" transform="translate(115.79 290.47) rotate(18.24) scale(1.51 1)"><tspan x="0" y="0">E</tspan></text>
    </g>
  </g>
  <g class="st4">
    <g class="st4">
      <text class="st2" transform="translate(115.79 290.47) rotate(18.24) scale(1.51 1)"><tspan x="0" y="0">E</tspan></text>
    </g>
    <g class="st4">
      <text class="st3" transform="translate(115.79 290.47) rotate(18.24) scale(1.51 1)"><tspan x="0" y="0">E</tspan></text>
    </g>
  </g>
  <g class="st4">
    <g class="st4">
      <text class="st1" transform="translate(150.89 301.57) rotate(1.26) scale(1.51 1)"><tspan x="0" y="0">X</tspan></text>
    </g>
  </g>
  <g class="st4">
    <g class="st4">
      <text class="st2" transform="translate(150.89 301.57) rotate(1.26) scale(1.51 1)"><tspan x="0" y="0">X</tspan></text>
    </g>
    <g class="st4">
      <text class="st3" transform="translate(150.89 301.57) rotate(1.26) scale(1.51 1)"><tspan x="0" y="0">X</tspan></text>
    </g>
  </g>
  <g class="st4">
    <g class="st4">
      <text class="st1" transform="translate(192.85 301.61) rotate(-18.02) scale(1.51 1)"><tspan x="0" y="0">A</tspan></text>
    </g>
  </g>
  <g class="st4">
    <g class="st4">
      <text class="st2" transform="translate(192.85 301.61) rotate(-18.02) scale(1.51 1)"><tspan x="0" y="0">A</tspan></text>
    </g>
    <g class="st4">
      <text class="st3" transform="translate(192.85 301.61) rotate(-18.02) scale(1.51 1)"><tspan x="0" y="0">A</tspan></text>
    </g>
  </g>
  <g class="st4">
    <g class="st4">
      <text class="st1" transform="translate(232.53 287.32) rotate(-38.05) scale(1.51 1)"><tspan x="0" y="0">S</tspan></text>
    </g>
  </g>
  <g class="st4">
    <g class="st4">
      <text class="st2" transform="translate(232.53 287.32) rotate(-38.05) scale(1.51 1)"><tspan x="0" y="0">S</tspan></text>
    </g>
    <g class="st4">
      <text class="st3" transform="translate(232.53 287.32) rotate(-38.05) scale(1.51 1)"><tspan x="0" y="0">S</tspan></text>
    </g>
  </g>
  <circle class="st0" cx="170.05" cy="165.91" r="99.35"/>
  <circle class="st24" cx="170.05" cy="165.91" r="99.35"/>
  <path class="st20" d="M127.97,158.87c-8.49,0-15.56,5.89-17.11,13.69-.2,1.03-.31,2.11-.31,3.2s.1,2.13.31,3.15c1.52,7.83,8.6,13.74,17.11,13.74,5.97,0,11.24-2.91,14.38-7.35,1.48-2.09,2.49-4.52,2.87-7.15.12-.78.18-1.58.18-2.39,0-9.33-7.8-16.89-17.43-16.89ZM140.51,184.93l-27.94-5.67c-.29-1.12-.44-2.3-.44-3.5,0-1.01.1-1.99.3-2.95l8.87,1.45.43-1.37c.46-1.47,1.89-2.35,3.32-2.06l7.7,1.55c1.67.34,2.69,2.12,2.2,3.85l-.07.24,8.77,1.42c-.39,2.63-1.5,5.03-3.14,7.04h0ZM128.39,173.12c-1.43-.2-2.74.58-3.15,1.78-.05.15-.09.3-.11.46-.19,1.46.96,2.82,2.56,3.04,1.61.21,3.07-.79,3.26-2.25,0-.11.02-.21.02-.32,0-1.33-1.09-2.52-2.58-2.71h0Z"/>
  <path class="st23" d="M127.97,158.87c-8.49,0-15.56,5.89-17.11,13.69-.2,1.03-.31,2.11-.31,3.2s.1,2.13.31,3.15c1.52,7.83,8.6,13.74,17.11,13.74,5.97,0,11.24-2.91,14.38-7.35,1.48-2.09,2.49-4.52,2.87-7.15.12-.78.18-1.58.18-2.39,0-9.33-7.8-16.89-17.43-16.89ZM140.51,184.93l-27.94-5.67c-.29-1.12-.44-2.3-.44-3.5,0-1.01.1-1.99.3-2.95l8.87,1.45.43-1.37c.46-1.47,1.89-2.35,3.32-2.06l7.7,1.55c1.67.34,2.69,2.12,2.2,3.85l-.07.24,8.77,1.42c-.39,2.63-1.5,5.03-3.14,7.04h0ZM128.39,173.12c-1.43-.2-2.74.58-3.15,1.78-.05.15-.09.3-.11.46-.19,1.46.96,2.82,2.56,3.04,1.61.21,3.07-.79,3.26-2.25,0-.11.02-.21.02-.32,0-1.33-1.09-2.52-2.58-2.71h0Z"/>
  <path class="st20" d="M226.13,172.11c-.43-.99-1.48-1.68-2.72-1.68-1.62,0-2.94,1.19-2.94,2.66,0,.13,0,.26.04.38.2,1.29,1.42,2.29,2.9,2.29,1.62,0,2.93-1.2,2.93-2.67,0-.35-.07-.68-.21-.98h0ZM226.13,172.11c-.43-.99-1.48-1.68-2.72-1.68-1.62,0-2.94,1.19-2.94,2.66,0,.13,0,.26.04.38.2,1.29,1.42,2.29,2.9,2.29,1.62,0,2.93-1.2,2.93-2.67,0-.35-.07-.68-.21-.98h0ZM240.23,168.69c-1.99-7.2-8.77-12.49-16.82-12.49-9.62,0-17.43,7.56-17.43,16.89,0,1.3.15,2.57.44,3.79.6,2.55,1.8,4.88,3.45,6.84,3.2,3.82,8.08,6.26,13.54,6.26,9.03,0,16.45-6.65,17.33-15.18.06-.56.09-1.13.09-1.71,0-1.52-.21-3-.6-4.4h0ZM211.67,183.2c-1.78-1.86-3.07-4.16-3.69-6.69l8.7-2.11-.16-1.19c-.2-1.53.71-2.94,2.13-3.29l7.62-1.89c1.66-.41,3.34.76,3.62,2.54l.1.6,8.68-2.11c.38,1.28.58,2.64.58,4.04,0,.74-.06,1.47-.17,2.18l-27.41,7.92h0ZM223.41,170.43c-1.62,0-2.94,1.19-2.94,2.66,0,.13,0,.26.04.38.2,1.29,1.42,2.29,2.9,2.29,1.62,0,2.93-1.2,2.93-2.67,0-.35-.07-.68-.21-.98-.43-.99-1.48-1.68-2.72-1.68h0ZM226.13,172.11c-.43-.99-1.48-1.68-2.72-1.68-1.62,0-2.94,1.19-2.94,2.66,0,.13,0,.26.04.38.2,1.29,1.42,2.29,2.9,2.29,1.62,0,2.93-1.2,2.93-2.67,0-.35-.07-.68-.21-.98h0ZM226.13,172.11c-.43-.99-1.48-1.68-2.72-1.68-1.62,0-2.94,1.19-2.94,2.66,0,.13,0,.26.04.38.2,1.29,1.42,2.29,2.9,2.29,1.62,0,2.93-1.2,2.93-2.67,0-.35-.07-.68-.21-.98h0Z"/>
  <path class="st23" d="M226.13,172.11c-.43-.99-1.48-1.68-2.72-1.68-1.62,0-2.94,1.19-2.94,2.66,0,.13,0,.26.04.38.2,1.29,1.42,2.29,2.9,2.29,1.62,0,2.93-1.2,2.93-2.67,0-.35-.07-.68-.21-.98h0ZM226.13,172.11c-.43-.99-1.48-1.68-2.72-1.68-1.62,0-2.94,1.19-2.94,2.66,0,.13,0,.26.04.38.2,1.29,1.42,2.29,2.9,2.29,1.62,0,2.93-1.2,2.93-2.67,0-.35-.07-.68-.21-.98h0ZM240.23,168.69c-1.99-7.2-8.77-12.49-16.82-12.49-9.62,0-17.43,7.56-17.43,16.89,0,1.3.15,2.57.44,3.79.6,2.55,1.8,4.88,3.45,6.84,3.2,3.82,8.08,6.26,13.54,6.26,9.03,0,16.45-6.65,17.33-15.18.06-.56.09-1.13.09-1.71,0-1.52-.21-3-.6-4.4h0ZM211.67,183.2c-1.78-1.86-3.07-4.16-3.69-6.69l8.7-2.11-.16-1.19c-.2-1.53.71-2.94,2.13-3.29l7.62-1.89c1.66-.41,3.34.76,3.62,2.54l.1.6,8.68-2.11c.38,1.28.58,2.64.58,4.04,0,.74-.06,1.47-.17,2.18l-27.41,7.92h0ZM223.41,170.43c-1.62,0-2.94,1.19-2.94,2.66,0,.13,0,.26.04.38.2,1.29,1.42,2.29,2.9,2.29,1.62,0,2.93-1.2,2.93-2.67,0-.35-.07-.68-.21-.98-.43-.99-1.48-1.68-2.72-1.68h0ZM226.13,172.11c-.43-.99-1.48-1.68-2.72-1.68-1.62,0-2.94,1.19-2.94,2.66,0,.13,0,.26.04.38.2,1.29,1.42,2.29,2.9,2.29,1.62,0,2.93-1.2,2.93-2.67,0-.35-.07-.68-.21-.98h0ZM226.13,172.11c-.43-.99-1.48-1.68-2.72-1.68-1.62,0-2.94,1.19-2.94,2.66,0,.13,0,.26.04.38.2,1.29,1.42,2.29,2.9,2.29,1.62,0,2.93-1.2,2.93-2.67,0-.35-.07-.68-.21-.98h0Z"/>
  <path class="st0" d="M226.13,172.11c-.43-.99-1.48-1.68-2.72-1.68-1.62,0-2.94,1.19-2.94,2.66,0,.13,0,.26.04.38.2,1.29,1.42,2.29,2.9,2.29,1.62,0,2.93-1.2,2.93-2.67,0-.35-.07-.68-.21-.98h0ZM223.41,158.05c-8.75,0-15.84,6.74-15.84,15.05,0,1.17.14,2.31.41,3.41l8.7-2.11-.16-1.19c-.2-1.53.71-2.94,2.13-3.29l7.62-1.89c1.66-.41,3.34.76,3.62,2.54l.1.6,8.68-2.11c-1.86-6.35-7.99-11.01-15.26-11.01h0ZM223.41,170.43c-1.62,0-2.94,1.19-2.94,2.66,0,.13,0,.26.04.38l5.62-1.36c-.43-.99-1.48-1.68-2.72-1.68h0ZM211.67,183.2c2.9,3.03,7.09,4.94,11.74,4.94,7.96,0,14.56-5.59,15.67-12.86l-27.41,7.92ZM226.13,172.11c-.43-.99-1.48-1.68-2.72-1.68-1.62,0-2.94,1.19-2.94,2.66,0,.13,0,.26.04.38.2,1.29,1.42,2.29,2.9,2.29,1.62,0,2.93-1.2,2.93-2.67,0-.35-.07-.68-.21-.98h0ZM226.13,172.11c-.43-.99-1.48-1.68-2.72-1.68-1.62,0-2.94,1.19-2.94,2.66,0,.13,0,.26.04.38.2,1.29,1.42,2.29,2.9,2.29,1.62,0,2.93-1.2,2.93-2.67,0-.35-.07-.68-.21-.98h0Z"/>
  <path class="st23" d="M226.13,172.11c-.43-.99-1.48-1.68-2.72-1.68-1.62,0-2.94,1.19-2.94,2.66,0,.13,0,.26.04.38.2,1.29,1.42,2.29,2.9,2.29,1.62,0,2.93-1.2,2.93-2.67,0-.35-.07-.68-.21-.98h0ZM223.41,158.05c-8.75,0-15.84,6.74-15.84,15.05,0,1.17.14,2.31.41,3.41l8.7-2.11-.16-1.19c-.2-1.53.71-2.94,2.13-3.29l7.62-1.89c1.66-.41,3.34.76,3.62,2.54l.1.6,8.68-2.11c-1.86-6.35-7.99-11.01-15.26-11.01h0ZM223.41,170.43c-1.62,0-2.94,1.19-2.94,2.66,0,.13,0,.26.04.38l5.62-1.36c-.43-.99-1.48-1.68-2.72-1.68h0ZM211.67,183.2c2.9,3.03,7.09,4.94,11.74,4.94,7.96,0,14.56-5.59,15.67-12.86l-27.41,7.92ZM226.13,172.11c-.43-.99-1.48-1.68-2.72-1.68-1.62,0-2.94,1.19-2.94,2.66,0,.13,0,.26.04.38.2,1.29,1.42,2.29,2.9,2.29,1.62,0,2.93-1.2,2.93-2.67,0-.35-.07-.68-.21-.98h0ZM226.13,172.11c-.43-.99-1.48-1.68-2.72-1.68-1.62,0-2.94,1.19-2.94,2.66,0,.13,0,.26.04.38.2,1.29,1.42,2.29,2.9,2.29,1.62,0,2.93-1.2,2.93-2.67,0-.35-.07-.68-.21-.98h0Z"/>
  <path class="st0" d="M140.51,184.93c-2.88,3.57-7.43,5.87-12.54,5.87-7.48,0-13.75-4.93-15.4-11.54l27.94,5.67Z"/>
  <path class="st23" d="M140.51,184.93c-2.88,3.57-7.43,5.87-12.54,5.87-7.48,0-13.75-4.93-15.4-11.54l27.94,5.67Z"/>
  <path class="st32" d="M130.97,175.83c0,.11,0,.21-.02.32-.19,1.46-1.65,2.46-3.26,2.25-1.6-.22-2.75-1.58-2.56-3.04.02-.16.06-.31.11-.46.41-1.2,1.72-1.98,3.15-1.78,1.49.19,2.58,1.38,2.58,2.71h0Z"/>
  <path class="st23" d="M130.97,175.83c0,.11,0,.21-.02.32-.19,1.46-1.65,2.46-3.26,2.25-1.6-.22-2.75-1.58-2.56-3.04.02-.16.06-.31.11-.46.41-1.2,1.72-1.98,3.15-1.78,1.49.19,2.58,1.38,2.58,2.71h0Z"/>
  <path class="st0" d="M143.81,175.76c0,.72-.05,1.43-.16,2.13l-8.77-1.42.07-.24c.49-1.73-.53-3.51-2.2-3.85l-7.7-1.55c-1.43-.29-2.86.59-3.32,2.06l-.43,1.37-8.87-1.45c1.44-6.9,7.85-12.1,15.54-12.1,8.75,0,15.84,6.74,15.84,15.05h0Z"/>
  <path class="st23" d="M143.81,175.76c0,.72-.05,1.43-.16,2.13l-8.77-1.42.07-.24c.49-1.73-.53-3.51-2.2-3.85l-7.7-1.55c-1.43-.29-2.86.59-3.32,2.06l-.43,1.37-8.87-1.45c1.44-6.9,7.85-12.1,15.54-12.1,8.75,0,15.84,6.74,15.84,15.05h0Z"/>
  <path class="st20" d="M130.97,175.83c0,.11,0,.21-.02.32-.19,1.46-1.65,2.46-3.26,2.25-1.6-.22-2.75-1.58-2.56-3.04.02-.16.06-.31.11-.46l5.73.93Z"/>
  <path class="st23" d="M130.97,175.83c0,.11,0,.21-.02.32-.19,1.46-1.65,2.46-3.26,2.25-1.6-.22-2.75-1.58-2.56-3.04.02-.16.06-.31.11-.46l5.73.93Z"/>
  <path class="st20" d="M226.34,173.09c0,1.47-1.31,2.67-2.93,2.67-1.48,0-2.7-1-2.9-2.29l5.62-1.36c.14.3.21.63.21.98h0Z"/>
  <path class="st23" d="M226.34,173.09c0,1.47-1.31,2.67-2.93,2.67-1.48,0-2.7-1-2.9-2.29l5.62-1.36c.14.3.21.63.21.98h0Z"/>
  <path class="st20" d="M240.22,168.69l-1.56.37-8.68,2.11-.1-.6c-.28-1.78-1.96-2.95-3.62-2.54l-7.62,1.89c-1.42.35-2.33,1.76-2.13,3.29l.16,1.19-8.7,2.11-1.56.37-14.04,3.41c-.42.1-.86.16-1.29.17l-3.16.1-9.12.27h-.06l-5.89.18h-.11l-7.79.24c-.39-.03-.78-.05-1.17-.08l-7.58-1.23-10.99-1.79-1.57-.26-8.77-1.42.07-.24c.49-1.73-.53-3.51-2.2-3.85l-7.7-1.55c-1.43-.29-2.86.59-3.32,2.06l-.43,1.37-8.87-1.45-1.57-.25-58.39-9.5c-.87-.13-.49,3.41.24,3.97.1.08.21.13.32.15l57.83,11.73,1.71.35,27.94,5.67,1.84.37,13.6,2.76,9.12,1.85c.47.09.94.13,1.41.12l21.55-.56,1.31-.03c.54,0,1.07-.1,1.59-.24l18.94-5.48,1.8-.52,27.41-7.92,1.66-.48,50.56-14.61.62-4.04-51.69,12.54h0ZM130.94,176.15c-.19,1.46-1.65,2.46-3.26,2.25-1.6-.22-2.75-1.58-2.56-3.04.02-.16.06-.31.11-.46.41-1.2,1.72-1.98,3.15-1.78,1.49.19,2.58,1.38,2.58,2.71,0,.11,0,.21-.02.32h0ZM223.4,175.76c-1.48,0-2.7-1-2.9-2.29-.03-.12-.04-.25-.04-.38,0-1.47,1.32-2.66,2.94-2.66,1.24,0,2.29.69,2.72,1.68.14.3.21.63.21.98,0,1.47-1.31,2.67-2.93,2.67h0Z"/>
  <path class="st23" d="M240.22,168.69l-1.56.37-8.68,2.11-.1-.6c-.28-1.78-1.96-2.95-3.62-2.54l-7.62,1.89c-1.42.35-2.33,1.76-2.13,3.29l.16,1.19-8.7,2.11-1.56.37-14.04,3.41c-.42.1-.86.16-1.29.17l-3.16.1-9.12.27h-.06l-5.89.18h-.11l-7.79.24c-.39-.03-.78-.05-1.17-.08l-7.58-1.23-10.99-1.79-1.57-.26-8.77-1.42.07-.24c.49-1.73-.53-3.51-2.2-3.85l-7.7-1.55c-1.43-.29-2.86.59-3.32,2.06l-.43,1.37-8.87-1.45-1.57-.25-58.39-9.5c-.87-.13-.49,3.41.24,3.97.1.08.21.13.32.15l57.83,11.73,1.71.35,27.94,5.67,1.84.37,13.6,2.76,9.12,1.85c.47.09.94.13,1.41.12l21.55-.56,1.31-.03c.54,0,1.07-.1,1.59-.24l18.94-5.48,1.8-.52,27.41-7.92,1.66-.48,50.56-14.61.62-4.04-51.69,12.54h0ZM130.94,176.15c-.19,1.46-1.65,2.46-3.26,2.25-1.6-.22-2.75-1.58-2.56-3.04.02-.16.06-.31.11-.46.41-1.2,1.72-1.98,3.15-1.78,1.49.19,2.58,1.38,2.58,2.71,0,.11,0,.21-.02.32h0ZM223.4,175.76c-1.48,0-2.7-1-2.9-2.29-.03-.12-.04-.25-.04-.38,0-1.47,1.32-2.66,2.94-2.66,1.24,0,2.29.69,2.72,1.68.14.3.21.63.21.98,0,1.47-1.31,2.67-2.93,2.67h0Z"/>
  <path class="st20" d="M193.16,155.3l-19.52.26.18,5.48c3.15.37,8.27,1.25,10.25,2.93,3.2,2.71,3.23,6.5,3.57,10.7.68,8.63-.06,6.66.18,11.36.23,4.59,1.06,8.76-2.12,10.63-1.44.85-2.65,1.52-4.33,1.59-5.2.23-12.03-.7-17.24-.47-2.3.11-4.86.13-6.61-1.38-1.69-1.44-1.59-6.88-1.54-9.12.25-11.51.34-5.81.79-13.22.36-5.94,2.53-9.02,3.98-10.37,1.19-1.11,3.89-1.93,6.59-2.47.78-.2,1.76-.17,2.76-.43l.32-5.18-20.61.27-1.07-2.68,21.85-.35.44-7.17.84-3.67,1.48,3.71.23,7.08,21.08-.34-1.48,2.85h-.02,0Z"/>
  <path class="st23" d="M193.16,155.3l-19.52.26.18,5.48c3.15.37,8.27,1.25,10.25,2.93,3.2,2.71,3.23,6.5,3.57,10.7.68,8.63-.06,6.66.18,11.36.23,4.59,1.06,8.76-2.12,10.63-1.44.85-2.65,1.52-4.33,1.59-5.2.23-12.03-.7-17.24-.47-2.3.11-4.86.13-6.61-1.38-1.69-1.44-1.59-6.88-1.54-9.12.25-11.51.34-5.81.79-13.22.36-5.94,2.53-9.02,3.98-10.37,1.19-1.11,3.89-1.93,6.59-2.47.78-.2,1.76-.17,2.76-.43l.32-5.18-20.61.27-1.07-2.68,21.85-.35.44-7.17.84-3.67,1.48,3.71.23,7.08,21.08-.34-1.48,2.85h-.02,0Z"/>
  <path class="st31" d="M184.21,180c2.95-.94,1.44-13.24-2.56-14.62-1.47-.51-11.72-1.73-16.69-.74-6.34,1.27-6.38,13.81-3.82,14.81,5.58,2.19,19.1,1.8,23.06.54h.01Z"/>
  <path class="st23" d="M184.21,180c2.95-.94,1.44-13.24-2.56-14.62-1.47-.51-11.72-1.73-16.69-.74-6.34,1.27-6.38,13.81-3.82,14.81,5.58,2.19,19.1,1.8,23.06.54h.01Z"/>
  <path class="st32" d="M130.97,175.83c0,.11,0,.21-.02.32-.19,1.46-1.65,2.46-3.26,2.25-1.6-.22-2.75-1.58-2.56-3.04.02-.16.06-.31.11-.46.41-1.2,1.72-1.98,3.15-1.78,1.49.19,2.58,1.38,2.58,2.71h0Z"/>
  <path class="st32" d="M226.34,173.09c0,1.47-1.31,2.67-2.93,2.67-1.48,0-2.7-1-2.9-2.29-.03-.12-.04-.25-.04-.38,0-1.47,1.32-2.66,2.94-2.66,1.24,0,2.29.69,2.72,1.68.14.3.21.63.21.98h0Z"/>
  <path class="st36" d="M276.03,227.45c.22,1.99.45,3.98.64,5.97l.11.02c-.03.31-.13.81-.01.93l-.05.28-.04.17c-.08.07-.19-.43-.27-.75,0-.02.04-.17-.06-.31l-1.78-11.83c.19-.17.35-.35.5-.56l.04-.02c.47,2,.51,4.12.92,6.12v-.02h0Z"/>
  <path class="st23" d="M276.03,227.45c.22,1.99.45,3.98.64,5.97l.11.02c-.03.31-.13.81-.01.93l-.05.28-.04.17c-.08.07-.19-.43-.27-.75,0-.02.04-.17-.06-.31l-1.78-11.83c.19-.17.35-.35.5-.56l.04-.02c.47,2,.51,4.12.92,6.12v-.02h0Z"/>
  <path class="st40" d="M282.17,222.59l.33.62c-1.7,3.73-3.7,7.32-5.52,10.99,0,0-.07,0-.07.24l-.1.1-.1.1.05-.28c.03-.14.05-.29.07-.43.73-2.1,1.81-4.04,2.74-6.05.15-.33.32-.66.47-.99.39-.74,1.84-3.98,2.12-4.29h.01Z"/>
  <path class="st23" d="M282.17,222.59l.33.62c-1.7,3.73-3.7,7.32-5.52,10.99,0,0-.07,0-.07.24l-.1.1-.1.1.05-.28c.03-.14.05-.29.07-.43.73-2.1,1.81-4.04,2.74-6.05.15-.33.32-.66.47-.99.39-.74,1.84-3.98,2.12-4.29h.01Z"/>
  <path class="st21" d="M285.42,215.98c.11,0,.6-.06.65-.09,1.07,1.03,2.16,2.05,3.25,3.07.52.83,1.46.92.71,1.36-1.59-1.43-3.21-2.83-4.75-4.32l.14-.02Z"/>
  <path class="st23" d="M285.42,215.98c.11,0,.6-.06.65-.09,1.07,1.03,2.16,2.05,3.25,3.07.52.83,1.46.92.71,1.36-1.59-1.43-3.21-2.83-4.75-4.32l.14-.02Z"/>
  <path class="st38" d="M295.08,224.38l.52.52c-.25.08-.59,0-.83-.06h.22l.03-.1-.21-.11c-1.19-1.12-2.47-2.15-3.68-3.24-.38-.34-.73-.72-1.1-1.06.75-.44-.2-.53-.71-1.36,1.55,1.44,4.5,4.09,5.77,5.42h-.01Z"/>
  <path class="st23" d="M295.08,224.38l.52.52c-.25.08-.59,0-.83-.06h.22l.03-.1-.21-.11c-1.19-1.12-2.47-2.15-3.68-3.24-.38-.34-.73-.72-1.1-1.06.75-.44-.2-.53-.71-1.36,1.55,1.44,4.5,4.09,5.77,5.42h-.01Z"/>
  <path class="st26" d="M294.23,224.38c.19.1.39.12.58.25l.21.11-.03.09h-.22l-.24.04c-.06,0-.75-.1-1.07-.14l-.22-.04c-.12-.15-.01-.23,0-.39.16.03.93.12.99.08h0Z"/>
  <path class="st23" d="M294.23,224.38c.19.1.39.12.58.25l.21.11-.03.09h-.22l-.24.04c-.06,0-.75-.1-1.07-.14l-.22-.04c-.12-.15-.01-.23,0-.39.16.03.93.12.99.08h0Z"/>
  <path class="st28" d="M276.67,233.42c-.19-1.99-.42-3.98-.64-5.97-.23-2.09-.51-4.18-.75-6.26.12-.28,2.65-2.79,3.11-3.27.06.19.41-.33.72-.57l.05.25c-.78,4.63-1.33,9.31-2.08,13.95-.08.52-.25,1.05-.33,1.56,0,.04.11.17-.08.32h0Z"/>
  <path class="st23" d="M276.67,233.42c-.19-1.99-.42-3.98-.64-5.97-.23-2.09-.51-4.18-.75-6.26.12-.28,2.65-2.79,3.11-3.27.06.19.41-.33.72-.57l.05.25c-.78,4.63-1.33,9.31-2.08,13.95-.08.52-.25,1.05-.33,1.56,0,.04.11.17-.08.32h0Z"/>
  <path class="st6" d="M279.37,216.86l.12.09c.32,0,4.62-.91,5.67-.98l.12.04c1.53,1.5,3.16,2.89,4.75,4.32.38.34.73.72,1.1,1.06l-.08.14c-.32-.27-.63-.58-.96-.84-.28.36-.62-.18-1.2.28-.68-.3-.59.27-1.29.05,1.76.8,3.44,1.74,5.18,2.58l-.04.02c-4.47-2.19-8.93-4.42-13.41-6.59-.9,5.62-1.56,11.29-2.5,16.9-.02.14-.04.29-.07.43-.12-.11-.01-.62.01-.93l-.11-.02c.2-.15.08-.27.08-.32.08-.52.24-1.04.33-1.56.75-4.64,1.31-9.32,2.08-13.95l-.05-.25c-.31.24-.66.76-.72.57.67-.69.73-.86.77-.9.1-.1.12-.06.21-.16v.02h.01Z"/>
  <path class="st23" d="M279.37,216.86l.12.09c.32,0,4.62-.91,5.67-.98l.12.04c1.53,1.5,3.16,2.89,4.75,4.32.38.34.73.72,1.1,1.06l-.08.14c-.32-.27-.63-.58-.96-.84-.28.36-.62-.18-1.2.28-.68-.3-.59.27-1.29.05,1.76.8,3.44,1.74,5.18,2.58l-.04.02c-4.47-2.19-8.93-4.42-13.41-6.59-.9,5.62-1.56,11.29-2.5,16.9-.02.14-.04.29-.07.43-.12-.11-.01-.62.01-.93l-.11-.02c.2-.15.08-.27.08-.32.08-.52.24-1.04.33-1.56.75-4.64,1.31-9.32,2.08-13.95l-.05-.25c-.31.24-.66.76-.72.57.67-.69.73-.86.77-.9.1-.1.12-.06.21-.16v.02h.01Z"/>
  <path class="st22" d="M275.28,221.19c.24,2.09.51,4.18.75,6.26-.41-2.01-.45-4.12-.92-6.12l.04-.12.14-.02h-.01Z"/>
  <path class="st23" d="M275.28,221.19c.24,2.09.51,4.18.75,6.26-.41-2.01-.45-4.12-.92-6.12l.04-.12.14-.02h-.01Z"/>
  <path class="st5" d="M292.74,223.62c.5.24.99.51,1.49.76-.05.04-.83-.05-.99-.08-.18-.03-.37-.07-.55-.11-.16-.03-.33-.06-.49-.09-.28-.05-.56-.15-.85-.2-1.92-.35-3.84-.64-5.76-.96-1.16-.19-2.31-.43-3.48-.61-.52,1.1-.97,2.28-1.59,3.32-.1.37-.29.86-.47,1.24l-.14.07s-.27.74-.34.92c-.93,2.01-2.01,3.95-2.74,6.05.94-5.61,1.6-11.28,2.5-16.9,4.48,2.17,8.94,4.4,13.41,6.59h0Z"/>
  <path class="st23" d="M292.74,223.62c.5.24.99.51,1.49.76-.05.04-.83-.05-.99-.08-.18-.03-.37-.07-.55-.11-.16-.03-.33-.06-.49-.09-.28-.05-.56-.15-.85-.2-1.92-.35-3.84-.64-5.76-.96-1.16-.19-2.31-.43-3.48-.61-.52,1.1-.97,2.28-1.59,3.32-.1.37-.29.86-.47,1.24l-.14.07s-.27.74-.34.92c-.93,2.01-2.01,3.95-2.74,6.05.94-5.61,1.6-11.28,2.5-16.9,4.48,2.17,8.94,4.4,13.41,6.59h0Z"/>
  <path class="st39" d="M285.59,222.94c1.93.31,3.85.6,5.76.96-.49.06-3.26-.57-3.43-.54-.17.03-.22.45-.13.56-1.76-.25-3.53-.58-5.29-.71l-.33-.62.02-.11c.71.04,3.08.53,3.36.53l.04-.07Z"/>
  <path class="st23" d="M285.59,222.94c1.93.31,3.85.6,5.76.96-.49.06-3.26-.57-3.43-.54-.17.03-.22.45-.13.56-1.76-.25-3.53-.58-5.29-.71l-.33-.62.02-.11c.71.04,3.08.53,3.36.53l.04-.07Z"/>
  <path class="st29" d="M285.59,222.94l-.04.07c-.27,0-2.64-.49-3.36-.53l-.02.11c-.28.32-1.73,3.55-2.12,4.29.18-.38.37-.87.47-1.24.62-1.04,1.07-2.21,1.59-3.32,1.16.18,2.32.43,3.48.61h0Z"/>
  <path class="st23" d="M285.59,222.94l-.04.07c-.27,0-2.64-.49-3.36-.53l-.02.11c-.28.32-1.73,3.55-2.12,4.29.18-.38.37-.87.47-1.24.62-1.04,1.07-2.21,1.59-3.32,1.16.18,2.32.43,3.48.61h0Z"/>
  <path class="st29" d="M280.05,226.89c-.16.33-.32.66-.47.99.07-.18.31-.88.34-.92l.14-.07h-.01Z"/>
  <path class="st23" d="M280.05,226.89c-.16.33-.32.66-.47.99.07-.18.31-.88.34-.92l.14-.07h-.01Z"/>
  <path class="st27" d="M294.81,224.62c-.19-.13-.38-.15-.58-.25-.5-.25-.99-.51-1.49-.76l.04-.02c.13.06,1.63.81,1.62.72-1.18-.85-2.24-1.85-3.35-2.79l.08-.14c1.22,1.09,2.5,2.12,3.68,3.24h0Z"/>
  <path class="st23" d="M294.81,224.62c-.19-.13-.38-.15-.58-.25-.5-.25-.99-.51-1.49-.76l.04-.02c.13.06,1.63.81,1.62.72-1.18-.85-2.24-1.85-3.35-2.79l.08-.14c1.22,1.09,2.5,2.12,3.68,3.24h0Z"/>
  <path class="st30" d="M291.35,223.9c.29.05.57.15.85.2-.12.4,0,.26.15.47-1.52-.19-3.04-.43-4.56-.64-.09-.11-.04-.53.13-.56s2.94.6,3.43.54h0Z"/>
  <path class="st23" d="M291.35,223.9c.29.05.57.15.85.2-.12.4,0,.26.15.47-1.52-.19-3.04-.43-4.56-.64-.09-.11-.04-.53.13-.56s2.94.6,3.43.54h0Z"/>
  <path class="st26" d="M292.69,224.19v.28c.03.08.18.05.19.17-.18-.02-.36-.05-.53-.07-.15-.21-.26-.07-.15-.47.16.03.33.06.49.09h0Z"/>
  <path class="st23" d="M292.69,224.19v.28c.03.08.18.05.19.17-.18-.02-.36-.05-.53-.07-.15-.21-.26-.07-.15-.47.16.03.33.06.49.09h0Z"/>
  <path class="st30" d="M293.25,224.3c0,.16-.12.25,0,.39-.12,0-.25-.04-.37-.05,0-.12-.16-.1-.19-.17v-.28c.18.03.38.08.56.11Z"/>
  <path class="st23" d="M293.25,224.3c0,.16-.12.25,0,.39-.12,0-.25-.04-.37-.05,0-.12-.16-.1-.19-.17v-.28c.18.03.38.08.56.11Z"/>
  <path class="st38" d="M291.05,221.52c1.11.94,2.17,1.94,3.35,2.79.01.09-1.49-.65-1.62-.72-1.73-.84-3.42-1.78-5.18-2.58.7.22.61-.36,1.29-.05.58-.46.92.08,1.2-.28.33.26.64.56.96.84h0Z"/>
  <path class="st23" d="M291.05,221.52c1.11.94,2.17,1.94,3.35,2.79.01.09-1.49-.65-1.62-.72-1.73-.84-3.42-1.78-5.18-2.58.7.22.61-.36,1.29-.05.58-.46.92.08,1.2-.28.33.26.64.56.96.84h0Z"/>
  <path class="st8" d="M262.2,219.84c.36.19.91-.29,1.2-.23.56-.28,3.98-2.17,4.21-2.2l.06.07-1.83.91c-.22.31,1.12-.47,1.58-.68l.08.06c1.17-.55,5.85-3.16,6.47-3.34.03.1.13.07.14.08.72.43,3.92,1.72,5,2.35-.03.02-.02.07-.14.12-.21,0-.36.06-.55.09-.11.03-.28.05-.45.09-.08,0-.45-.03-.37.14-4.99.93-10.01,1.68-14.99,2.63l-.08.09c-.31.03-.6.15-.92.14.19-.1.39-.2.58-.31h.01Z"/>
  <path class="st23" d="M262.2,219.84c.36.19.91-.29,1.2-.23.56-.28,3.98-2.17,4.21-2.2l.06.07-1.83.91c-.22.31,1.12-.47,1.58-.68l.08.06c1.17-.55,5.85-3.16,6.47-3.34.03.1.13.07.14.08.72.43,3.92,1.72,5,2.35-.03.02-.02.07-.14.12-.21,0-.36.06-.55.09-.11.03-.28.05-.45.09-.08,0-.45-.03-.37.14-4.99.93-10.01,1.68-14.99,2.63l-.08.09c-.31.03-.6.15-.92.14.19-.1.39-.2.58-.31h.01Z"/>
  <path class="st22" d="M272.25,202.51c-1.22-.76-.85-1-.6,0,.03.13.18,1.09.29,1.59,0,.03.13.11.21.49-.07.33.09.56.15.86.03.17-.01,1.05.27,1.65.13,1.05.27,2.11.45,3.14.02.09.1.09.1.1.19,1.02.28,2.14.58,3.1.07.34.1.82.27,1-.62.18-5.3,2.79-6.47,3.34l-.08-.06c-.46.21-1.8.99-1.58.68l1.83-.91,5.98-3.13c.07-.12-.39-.22-.48-.3-.39-2.71-.92-5.41-1.32-8.12-.13-.89-.51-3.32-.55-3.99,0-.05-.02-.27.07-.24.26.31.58.55.87.81h.01Z"/>
  <path class="st23" d="M272.25,202.51c-1.22-.76-.85-1-.6,0,.03.13.18,1.09.29,1.59,0,.03.13.11.21.49-.07.33.09.56.15.86.03.17-.01,1.05.27,1.65.13,1.05.27,2.11.45,3.14.02.09.1.09.1.1.19,1.02.28,2.14.58,3.1.07.34.1.82.27,1-.62.18-5.3,2.79-6.47,3.34l-.08-.06c-.46.21-1.8.99-1.58.68l1.83-.91,5.98-3.13c.07-.12-.39-.22-.48-.3-.39-2.71-.92-5.41-1.32-8.12-.13-.89-.51-3.32-.55-3.99,0-.05-.02-.27.07-.24.26.31.58.55.87.81h.01Z"/>
  <path class="st34" d="M272.25,202.51c2.8,2.49,5.39,5.22,8.14,7.76l-.07.63-.07.06-3.59-3.63c-.5-.36-.87-.95-1.42-1.29-1.09-1.24-2.44-2.39-3.53-3.71l-.08.04c.24.34.39.74.58,1.11-.32.03.14,1.42.25,2.08.05.33-.01.52,0,.55l.1.1c.38,2.4.65,4.84,1.15,7.22-.3-.96-.39-2.08-.58-3.1,0,0-.08,0-.1-.1-.19-1.03-.33-2.09-.45-3.14-.28-.6-.23-1.48-.27-1.65-.06-.31-.22-.53-.15-.86-.08-.37-.2-.46-.21-.49-.11-.5-.25-1.46-.29-1.59-.25-.99-.62-.75.6,0h-.01Z"/>
  <path class="st23" d="M272.25,202.51c2.8,2.49,5.39,5.22,8.14,7.76l-.07.63-.07.06-3.59-3.63c-.5-.36-.87-.95-1.42-1.29-1.09-1.24-2.44-2.39-3.53-3.71l-.08.04c.24.34.39.74.58,1.11-.32.03.14,1.42.25,2.08.05.33-.01.52,0,.55l.1.1c.38,2.4.65,4.84,1.15,7.22-.3-.96-.39-2.08-.58-3.1,0,0-.08,0-.1-.1-.19-1.03-.33-2.09-.45-3.14-.28-.6-.23-1.48-.27-1.65-.06-.31-.22-.53-.15-.86-.08-.37-.2-.46-.21-.49-.11-.5-.25-1.46-.29-1.59-.25-.99-.62-.75.6,0h-.01Z"/>
  <path class="st30" d="M261.62,220.14c.32.02.61-.11.92-.14,1.07-.09,2.13.19,3.19.31,2.09.25,4.18.47,6.27.69,1.02.1,2.04.2,3.06.34-.15.21-.31.39-.5.56-1.97-.36-12.14-1.41-13-1.69l.02-.06.04-.02h0Z"/>
  <path class="st23" d="M261.62,220.14c.32.02.61-.11.92-.14,1.07-.09,2.13.19,3.19.31,2.09.25,4.18.47,6.27.69,1.02.1,2.04.2,3.06.34-.15.21-.31.39-.5.56-1.97-.36-12.14-1.41-13-1.69l.02-.06.04-.02h0Z"/>
  <path class="st38" d="M287.64,212.83c-.32-.66-.37-.39-.52-.23.39-.84.87-1.74,1.33-2.58.67-1.22,1.37-2.44,2.06-3.66.12-.21.24-.43.36-.64.14-.24.34-.45.24-.62l.43-.32c.09-.2-.45.24-.02-.24-.66.29-2.86,1.58-3.16,1.65l-.06-.07c1.29-.67,2.56-1.37,3.87-2-1.54,2.89-3.01,5.81-4.53,8.71h0Z"/>
  <path class="st23" d="M287.64,212.83c-.32-.66-.37-.39-.52-.23.39-.84.87-1.74,1.33-2.58.67-1.22,1.37-2.44,2.06-3.66.12-.21.24-.43.36-.64.14-.24.34-.45.24-.62l.43-.32c.09-.2-.45.24-.02-.24-.66.29-2.86,1.58-3.16,1.65l-.06-.07c1.29-.67,2.56-1.37,3.87-2-1.54,2.89-3.01,5.81-4.53,8.71h0Z"/>
  <path class="st22" d="M273.18,214.04c.09.08.55.18.48.3l-5.98,3.13-.06-.07c-.24.03-3.65,1.93-4.21,2.2-.28-.07-.84.42-1.2.23,3.66-1.93,7.35-3.8,10.97-5.79Z"/>
  <path class="st23" d="M273.18,214.04c.09.08.55.18.48.3l-5.98,3.13-.06-.07c-.24.03-3.65,1.93-4.21,2.2-.28-.07-.84.42-1.2.23,3.66-1.93,7.35-3.8,10.97-5.79Z"/>
  <path class="st34" d="M284.87,207.92c.18.14,1.3-.66,1.42-.65l.18.25c.16.02,1.29-.77,1.52-.89.14-.08.29-.05.51-.17.2-.11.71-.56,1.21-.58-3.09,1.74-6.28,3.31-9.39,5.02l.07-.63c1.54-.7,2.99-1.56,4.48-2.35Z"/>
  <path class="st23" d="M284.87,207.92c.18.14,1.3-.66,1.42-.65l.18.25c.16.02,1.29-.77,1.52-.89.14-.08.29-.05.51-.17.2-.11.71-.56,1.21-.58-3.09,1.74-6.28,3.31-9.39,5.02l.07-.63c1.54-.7,2.99-1.56,4.48-2.35Z"/>
  <path class="st41" d="M287.64,212.83c-.21.39-1.44,2.96-1.58,3.06-.05.03-.54.08-.65.09v-.25c.24-.59,1.33-2.13,1.54-2.89.07-.1.07-.13.17-.24.15-.16.19-.43.52.23h0Z"/>
  <path class="st23" d="M287.64,212.83c-.21.39-1.44,2.96-1.58,3.06-.05.03-.54.08-.65.09v-.25c.24-.59,1.33-2.13,1.54-2.89.07-.1.07-.13.17-.24.15-.16.19-.43.52.23h0Z"/>
  <path class="st36" d="M288.3,206.12l.06.07c.3-.07,2.49-1.37,3.16-1.65-.43.47.11.03.02.24l-.43.32c.1.17-.1.38-.24.62.11-.55-.33-.03-.53.13-.07-.13.13-.12-.08-.16.16-.1.53-.28.62-.38.4-.38-.68.29-1.17.56-.5.03-1.01.48-1.21.58-.22.12-.37.09-.51.17-.23.12-1.36.92-1.52.89l-.18-.25c-.12-.02-1.24.78-1.42.65,1.14-.6,2.29-1.2,3.43-1.8h0Z"/>
  <path class="st23" d="M288.3,206.12l.06.07c.3-.07,2.49-1.37,3.16-1.65-.43.47.11.03.02.24l-.43.32c.1.17-.1.38-.24.62.11-.55-.33-.03-.53.13-.07-.13.13-.12-.08-.16.16-.1.53-.28.62-.38.4-.38-.68.29-1.17.56-.5.03-1.01.48-1.21.58-.22.12-.37.09-.51.17-.23.12-1.36.92-1.52.89l-.18-.25c-.12-.02-1.24.78-1.42.65,1.14-.6,2.29-1.2,3.43-1.8h0Z"/>
  <path class="st13" d="M277.61,217.29c.32-.07.35-.14.37-.14.33-.04.39-.08.45-.09.03,0,.09.11.55-.09l.18.06s-.1.21-.77.9c-.46.48-2.99,2.98-3.11,3.27l-.14.02c-1.02-.07-2.06-.18-3.08-.28-2.11-.2-4.21-.49-6.33-.61-1.07-.12-2.12-.4-3.19-.31l.08-.09c4.98-.95,10-1.7,14.99-2.63h0Z"/>
  <path class="st23" d="M277.61,217.29c.32-.07.35-.14.37-.14.33-.04.39-.08.45-.09.03,0,.09.11.55-.09l.18.06s-.1.21-.77.9c-.46.48-2.99,2.98-3.11,3.27l-.14.02c-1.02-.07-2.06-.18-3.08-.28-2.11-.2-4.21-.49-6.33-.61-1.07-.12-2.12-.4-3.19-.31l.08-.09c4.98-.95,10-1.7,14.99-2.63h0Z"/>
  <path class="st12" d="M272.21,203.47c2.3,4.44,4.65,8.86,6.96,13.29l.04.13-.1-.05c-1.09-.63-4.28-1.92-5-2.35l-.14-.08c-.17-.18-.2-.66-.27-1-.5-2.38-.76-4.82-1.15-7.22l-.1-.1s.06-.23,0-.55c-.11-.66-.57-2.05-.25-2.08h.01Z"/>
  <path class="st23" d="M272.21,203.47c2.3,4.44,4.65,8.86,6.96,13.29l.04.13-.1-.05c-1.09-.63-4.28-1.92-5-2.35l-.14-.08c-.17-.18-.2-.66-.27-1-.5-2.38-.76-4.82-1.15-7.22l-.1-.1s.06-.23,0-.55c-.11-.66-.57-2.05-.25-2.08h.01Z"/>
  <path class="st9" d="M290.26,205.69c.21.03,0,.02.08.16-.12.1-.21.22-.33.32-1.09.98-2.11,2.03-3.13,3.08-.59.38-.95,1.03-1.51,1.39-.65.83-1.57,1.54-2.2,2.34-.2.11-.68.55-.89.76-.23.24-.52.55-.52.77-.79.79-1.61,1.55-2.4,2.35-.1.1-.12.06-.21.16l-.18-.06c.12-.05.11-.1.14-.12l.1.05-.04-.13c.33-.56.42-1.98.57-2.71.01-.05.19-.11.23-.32.16-.76.24-1.82.39-2.62,2.96-1.78,7.09-3.69,9.9-5.43h0Z"/>
  <path class="st23" d="M290.26,205.69c.21.03,0,.02.08.16-.12.1-.21.22-.33.32-1.09.98-2.11,2.03-3.13,3.08-.59.38-.95,1.03-1.51,1.39-.65.83-1.57,1.54-2.2,2.34-.2.11-.68.55-.89.76-.23.24-.52.55-.52.77-.79.79-1.61,1.55-2.4,2.35-.1.1-.12.06-.21.16l-.18-.06c.12-.05.11-.1.14-.12l.1.05-.04-.13c.33-.56.42-1.98.57-2.71.01-.05.19-.11.23-.32.16-.76.24-1.82.39-2.62,2.96-1.78,7.09-3.69,9.9-5.43h0Z"/>
  <path class="st35" d="M278.98,216.97c-.45.19-.52.08-.55.09.19-.03.34-.1.55-.09Z"/>
  <path class="st23" d="M278.98,216.97c-.45.19-.52.08-.55.09.19-.03.34-.1.55-.09Z"/>
  <path class="st35" d="M277.98,217.14s-.05.07-.37.14c-.08-.18.29-.13.37-.14Z"/>
  <path class="st23" d="M277.98,217.14s-.05.07-.37.14c-.08-.18.29-.13.37-.14Z"/>
  <path class="st35" d="M278.43,217.05c-.06,0-.12.05-.45.09.17-.04.34-.06.45-.09Z"/>
  <path class="st23" d="M278.43,217.05c-.06,0-.12.05-.45.09.17-.04.34-.06.45-.09Z"/>
  <path class="st22" d="M274.11,214.5s-.11.03-.14-.08l.14.08Z"/>
  <path class="st23" d="M274.11,214.5s-.11.03-.14-.08l.14.08Z"/>
  <path class="st35" d="M280.32,210.9c3.11-1.7,6.31-3.28,9.39-5.02.49-.28,1.57-.94,1.17-.56-.1.09-.47.28-.62.38-2.81,1.74-6.94,3.65-9.9,5.43-.16.8-.23,1.85-.39,2.62-.04.21-.22.27-.23.32-.15.72-.24,2.14-.57,2.71-2.31-4.44-4.65-8.86-6.96-13.29-.19-.37-.34-.77-.58-1.11l.08-.04c1.1,1.32,2.44,2.47,3.53,3.71.55.34.92.93,1.42,1.29l3.59,3.63.07-.06h0Z"/>
  <path class="st23" d="M280.32,210.9c3.11-1.7,6.31-3.28,9.39-5.02.49-.28,1.57-.94,1.17-.56-.1.09-.47.28-.62.38-2.81,1.74-6.94,3.65-9.9,5.43-.16.8-.23,1.85-.39,2.62-.04.21-.22.27-.23.32-.15.72-.24,2.14-.57,2.71-2.31-4.44-4.65-8.86-6.96-13.29-.19-.37-.34-.77-.58-1.11l.08-.04c1.1,1.32,2.44,2.47,3.53,3.71.55.34.92.93,1.42,1.29l3.59,3.63.07-.06h0Z"/>
  <path class="st33" d="M272.07,220.93c1.02.1,2.05.2,3.08.28l-.04.12-.04.02c-1.01-.14-2.04-.23-3.06-.34l.06-.08h0Z"/>
  <path class="st23" d="M272.07,220.93c1.02.1,2.05.2,3.08.28l-.04.12-.04.02c-1.01-.14-2.04-.23-3.06-.34l.06-.08h0Z"/>
  <path class="st39" d="M272.07,220.93l-.06.08c-2.09-.22-4.18-.44-6.27-.69,2.12.12,4.22.41,6.33.61Z"/>
  <path class="st23" d="M272.07,220.93l-.06.08c-2.09-.22-4.18-.44-6.27-.69,2.12.12,4.22.41,6.33.61Z"/>
  <path class="st11" d="M288.24,209.88c.19.11-.11.43.22.13-.46.84-.94,1.74-1.33,2.58-.1.11-.1.14-.17.24-.31.44-1.64,3.03-1.79,3.12-1.05.07-5.35.99-5.67.98l-.12-.09c.78-.8,1.61-1.55,2.4-2.35,1.85-1.87,3.71-3.74,5.54-5.63.14.31.49.48.51.5.12.13.07.44.41.5v.02Z"/>
  <path class="st23" d="M288.24,209.88c.19.11-.11.43.22.13-.46.84-.94,1.74-1.33,2.58-.1.11-.1.14-.17.24-.31.44-1.64,3.03-1.79,3.12-1.05.07-5.35.99-5.67.98l-.12-.09c.78-.8,1.61-1.55,2.4-2.35,1.85-1.87,3.71-3.74,5.54-5.63.14.31.49.48.51.5.12.13.07.44.41.5v.02Z"/>
  <path class="st22" d="M290.02,206.17c.18.19.31-.07.5.19-.69,1.21-1.38,2.44-2.06,3.66-.33.3-.03-.02-.22-.13.12.02.3-.07.24-.2h-.1c-.08-.16-.56-1.17-.68-1.16l-.39.35c-1.83,1.89-3.69,3.76-5.54,5.63,0-.22.29-.53.52-.77.21-.22.69-.65.89-.76.63-.8,1.55-1.52,2.2-2.34.56-.35.92-1.01,1.51-1.39,1.02-1.05,2.04-2.1,3.13-3.08h0Z"/>
  <path class="st23" d="M290.02,206.17c.18.19.31-.07.5.19-.69,1.21-1.38,2.44-2.06,3.66-.33.3-.03-.02-.22-.13.12.02.3-.07.24-.2h-.1c-.08-.16-.56-1.17-.68-1.16l-.39.35c-1.83,1.89-3.69,3.76-5.54,5.63,0-.22.29-.53.52-.77.21-.22.69-.65.89-.76.63-.8,1.55-1.52,2.2-2.34.56-.35.92-1.01,1.51-1.39,1.02-1.05,2.04-2.1,3.13-3.08h0Z"/>
  <path class="st34" d="M290.87,205.72c-.12.21-.24.43-.36.64-.19-.26-.32,0-.5-.19.11-.1.2-.22.33-.32.2-.16.64-.68.53-.13h0Z"/>
  <path class="st23" d="M290.87,205.72c-.12.21-.24.43-.36.64-.19-.26-.32,0-.5-.19.11-.1.2-.22.33-.32.2-.16.64-.68.53-.13h0Z"/>
  <path class="st33" d="M286.95,212.84c-.21.77-1.29,2.3-1.54,2.89v.25l-.13.02-.12-.04c.15-.1,1.48-2.68,1.79-3.12h0Z"/>
  <path class="st23" d="M286.95,212.84c-.21.77-1.29,2.3-1.54,2.89v.25l-.13.02-.12-.04c.15-.1,1.48-2.68,1.79-3.12h0Z"/>
  <path class="st37" d="M288.24,209.88c-.35-.06-.3-.38-.41-.5-.02-.03-.37-.19-.51-.5l.39-.35c.12,0,.6,1,.68,1.16h.1c.06.13-.12.22-.24.2h-.01Z"/>
  <path class="st23" d="M288.24,209.88c-.35-.06-.3-.38-.41-.5-.02-.03-.37-.19-.51-.5l.39-.35c.12,0,.6,1,.68,1.16h.1c.06.13-.12.22-.24.2h-.01Z"/>
  <path class="st36" d="M58.81,229.03c.65,1.89,1.3,3.79,1.92,5.69h.11c.04.3.05.81.19.9v.45c-.07.09-.28-.37-.43-.68,0,0,0-.18-.13-.29l-4.3-11.17c.15-.2.27-.42.37-.66l.03-.03c.9,1.85,1.39,3.91,2.23,5.78h.01Z"/>
  <path class="st23" d="M58.81,229.03c.65,1.89,1.3,3.79,1.92,5.69h.11c.04.3.05.81.19.9v.45c-.07.09-.28-.37-.43-.68,0,0,0-.18-.13-.29l-4.3-11.17c.15-.2.27-.42.37-.66l.03-.03c.9,1.85,1.39,3.91,2.23,5.78h.01Z"/>
  <path class="st40" d="M63.76,222.95l.45.54c-.85,4.01-2.03,7.95-3.01,11.92,0,0-.07,0-.02.25l-.07.12-.07.12v-.28c0-.15-.02-.29-.03-.44.26-2.21.89-4.34,1.36-6.5.08-.36.17-.72.25-1.07.22-.81.94-4.28,1.14-4.65h0Z"/>
  <path class="st23" d="M63.76,222.95l.45.54c-.85,4.01-2.03,7.95-3.01,11.92,0,0-.07,0-.02.25l-.07.12-.07.12v-.28c0-.15-.02-.29-.03-.44.26-2.21.89-4.34,1.36-6.5.08-.36.17-.72.25-1.07.22-.81.94-4.28,1.14-4.65h0Z"/>
  <path class="st21" d="M65.49,215.79c.11-.04.57-.19.61-.23,1.27.78,2.55,1.54,3.83,2.29.68.7,1.63.58.99,1.18-1.86-1.05-3.75-2.06-5.57-3.19l.13-.05h.01Z"/>
  <path class="st23" d="M65.49,215.79c.11-.04.57-.19.61-.23,1.27.78,2.55,1.54,3.83,2.29.68.7,1.63.58.99,1.18-1.86-1.05-3.75-2.06-5.57-3.19l.13-.05h.01Z"/>
  <path class="st38" d="M76.74,221.9c.1.06.6.37.62.4-.22.13-.57.13-.82.12l.21-.06v-.09l-.22-.07c-1.4-.84-2.87-1.56-4.3-2.36-.44-.25-.87-.55-1.31-.8.63-.59-.31-.47-.99-1.18,1.82,1.07,5.28,3.02,6.81,4.04h0Z"/>
  <path class="st23" d="M76.74,221.9c.1.06.6.37.62.4-.22.13-.57.13-.82.12l.21-.06v-.09l-.22-.07c-1.4-.84-2.87-1.56-4.3-2.36-.44-.25-.87-.55-1.31-.8.63-.59-.31-.47-.99-1.18,1.82,1.07,5.28,3.02,6.81,4.04h0Z"/>
  <path class="st26" d="M75.92,222.08c.21.05.4.03.61.11l.23.07v.09l-.22.06-.22.07c-.06,0-.75.06-1.07.1h-.22c-.15-.1-.06-.21-.09-.37.16,0,.94-.08.98-.14h0Z"/>
  <path class="st23" d="M75.92,222.08c.21.05.4.03.61.11l.23.07v.09l-.22.06-.22.07c-.06,0-.75.06-1.07.1h-.22c-.15-.1-.06-.21-.09-.37.16,0,.94-.08.98-.14h0Z"/>
  <path class="st10" d="M60.73,234.72c-.62-1.9-1.27-3.8-1.92-5.69-.68-1.99-1.4-3.97-2.09-5.95.06-.3,1.98-3.3,2.33-3.86.1.17.33-.42.58-.72l.11.23c.25,4.69.72,9.38.99,14.07.03.53-.02,1.07.02,1.59,0,.04.15.14,0,.33h-.02Z"/>
  <path class="st23" d="M60.73,234.72c-.62-1.9-1.27-3.8-1.92-5.69-.68-1.99-1.4-3.97-2.09-5.95.06-.3,1.98-3.3,2.33-3.86.1.17.33-.42.58-.72l.11.23c.25,4.69.72,9.38.99,14.07.03.53-.02,1.07.02,1.59,0,.04.15.14,0,.33h-.02Z"/>
  <path class="st7" d="M59.78,217.96l.14.06c.32-.06,4.32-1.89,5.32-2.19h.12c1.82,1.14,3.71,2.15,5.57,3.2.44.25.87.55,1.31.8l-.04.15c-.38-.2-.74-.43-1.12-.61-.19.41-.64-.04-1.11.53-.73-.15-.52.39-1.25.33,1.89.4,3.74.95,5.61,1.4l-.03.03c-4.84-1.17-9.67-2.38-14.52-3.53.34,5.68.93,11.36,1.23,17.04,0,.15.02.29.03.44-.14-.09-.15-.6-.19-.91h-.11c.16-.18.02-.28,0-.32-.04-.52,0-1.07-.02-1.59-.27-4.69-.75-9.38-.99-14.07l-.11-.23c-.25.3-.48.88-.58.72.5-.82.53-.99.56-1.05.07-.12.1-.09.17-.2h.01Z"/>
  <path class="st23" d="M59.78,217.96l.14.06c.32-.06,4.32-1.89,5.32-2.19h.12c1.82,1.14,3.71,2.15,5.57,3.2.44.25.87.55,1.31.8l-.04.15c-.38-.2-.74-.43-1.12-.61-.19.41-.64-.04-1.11.53-.73-.15-.52.39-1.25.33,1.89.4,3.74.95,5.61,1.4l-.03.03c-4.84-1.17-9.67-2.38-14.52-3.53.34,5.68.93,11.36,1.23,17.04,0,.15.02.29.03.44-.14-.09-.15-.6-.19-.91h-.11c.16-.18.02-.28,0-.32-.04-.52,0-1.07-.02-1.59-.27-4.69-.75-9.38-.99-14.07l-.11-.23c-.25.3-.48.88-.58.72.5-.82.53-.99.56-1.05.07-.12.1-.09.17-.2h.01Z"/>
  <path class="st22" d="M56.72,223.07c.69,1.98,1.41,3.97,2.09,5.95-.84-1.87-1.33-3.92-2.23-5.78v-.12l.14-.05Z"/>
  <path class="st23" d="M56.72,223.07c.69,1.98,1.41,3.97,2.09,5.95-.84-1.87-1.33-3.92-2.23-5.78v-.12l.14-.05Z"/>
  <path class="st18" d="M74.3,221.66c.54.13,1.08.28,1.62.42-.04.05-.82.13-.98.14h-.56c-.17,0-.34.02-.5.02-.29,0-.58-.02-.87,0-1.95.07-3.89.2-5.83.32-1.17.07-2.35.08-3.53.15-.27,1.19-.46,2.44-.83,3.58-.02.38-.1.9-.19,1.31l-.12.1s-.1.78-.13.97c-.47,2.16-1.11,4.3-1.36,6.5-.3-5.69-.88-11.36-1.23-17.04,4.85,1.15,9.68,2.36,14.52,3.53h0Z"/>
  <path class="st23" d="M74.3,221.66c.54.13,1.08.28,1.62.42-.04.05-.82.13-.98.14h-.56c-.17,0-.34.02-.5.02-.29,0-.58-.02-.87,0-1.95.07-3.89.2-5.83.32-1.17.07-2.35.08-3.53.15-.27,1.19-.46,2.44-.83,3.58-.02.38-.1.9-.19,1.31l-.12.1s-.1.78-.13.97c-.47,2.16-1.11,4.3-1.36,6.5-.3-5.69-.88-11.36-1.23-17.04,4.85,1.15,9.68,2.36,14.52,3.53h0Z"/>
  <path class="st39" d="M67.17,222.55c1.95-.11,3.89-.25,5.83-.32-.47.17-3.31.16-3.47.22s-.12.49,0,.58c-1.77.13-3.57.2-5.32.46l-.45-.54v-.11c.7-.12,3.12-.15,3.38-.21l.02-.08h.01Z"/>
  <path class="st23" d="M67.17,222.55c1.95-.11,3.89-.25,5.83-.32-.47.17-3.31.16-3.47.22s-.12.49,0,.58c-1.77.13-3.57.2-5.32.46l-.45-.54v-.11c.7-.12,3.12-.15,3.38-.21l.02-.08h.01Z"/>
  <path class="st29" d="M67.17,222.55l-.02.08c-.27.06-2.69.09-3.39.21v.11c-.2.37-.91,3.84-1.14,4.65.09-.41.17-.93.19-1.31.38-1.15.56-2.39.83-3.58,1.17-.07,2.35-.09,3.53-.15h0Z"/>
  <path class="st23" d="M67.17,222.55l-.02.08c-.27.06-2.69.09-3.39.21v.11c-.2.37-.91,3.84-1.14,4.65.09-.41.17-.93.19-1.31.38-1.15.56-2.39.83-3.58,1.17-.07,2.35-.09,3.53-.15h0Z"/>
  <path class="st29" d="M62.62,227.6c-.08.36-.17.72-.25,1.07.03-.19.12-.93.13-.97l.12-.1Z"/>
  <path class="st23" d="M62.62,227.6c-.08.36-.17.72-.25,1.07.03-.19.12-.93.13-.97l.12-.1Z"/>
  <path class="st27" d="M76.53,222.19c-.21-.08-.41-.06-.61-.11-.54-.14-1.08-.29-1.62-.42l.03-.03c.14.03,1.76.43,1.73.35-1.33-.57-2.59-1.32-3.87-2l.04-.15c1.42.8,2.9,1.53,4.3,2.36h0Z"/>
  <path class="st23" d="M76.53,222.19c-.21-.08-.41-.06-.61-.11-.54-.14-1.08-.29-1.62-.42l.03-.03c.14.03,1.76.43,1.73.35-1.33-.57-2.59-1.32-3.87-2l.04-.15c1.42.8,2.9,1.53,4.3,2.36h0Z"/>
  <path class="st30" d="M73,222.24c.29,0,.59.02.87,0-.03.42.05.25.24.43-1.53.14-3.06.24-4.59.36-.12-.09-.15-.51,0-.58.16-.07,3-.05,3.47-.22h0Z"/>
  <path class="st23" d="M73,222.24c.29,0,.59.02.87,0-.03.42.05.25.24.43-1.53.14-3.06.24-4.59.36-.12-.09-.15-.51,0-.58.16-.07,3-.05,3.47-.22h0Z"/>
  <path class="st26" d="M74.37,222.23l.06.27c.05.07.19,0,.22.13-.18.02-.36.03-.53.05-.19-.17-.27,0-.24-.43.17,0,.33,0,.5-.02h-.01Z"/>
  <path class="st23" d="M74.37,222.23l.06.27c.05.07.19,0,.22.13-.18.02-.36.03-.53.05-.19-.17-.27,0-.24-.43.17,0,.33,0,.5-.02h-.01Z"/>
  <path class="st30" d="M74.94,222.21c.03.16-.06.27.09.38-.12,0-.25.02-.38.03-.03-.12-.18-.06-.22-.13l-.06-.27h.57Z"/>
  <path class="st23" d="M74.94,222.21c.03.16-.06.27.09.38-.12,0-.25.02-.38.03-.03-.12-.18-.06-.22-.13l-.06-.27h.57Z"/>
  <path class="st38" d="M72.19,219.98c1.29.67,2.54,1.42,3.87,2,.03.09-1.59-.32-1.73-.35-1.87-.45-3.73-1-5.61-1.4.73.06.52-.48,1.25-.33.47-.57.91-.12,1.11-.53.38.18.74.41,1.12.61h-.01Z"/>
  <path class="st23" d="M72.19,219.98c1.29.67,2.54,1.42,3.87,2,.03.09-1.59-.32-1.73-.35-1.87-.45-3.73-1-5.61-1.4.73.06.52-.48,1.25-.33.47-.57.91-.12,1.11-.53.38.18.74.41,1.12.61h-.01Z"/>
  <path class="st17" d="M43.67,224.59c.39.11.83-.49,1.12-.48.48-.39,3.41-2.98,3.63-3.06l.07.05-1.59,1.29c-.15.35,1-.7,1.4-1.01l.09.04c1.02-.79,5.03-4.35,5.59-4.66.06.09.14.04.15.04.8.26,4.2.83,5.39,1.21-.02.03,0,.07-.11.15-.21.03-.34.13-.52.21-.1.05-.26.11-.42.18-.08.03-.45.07-.33.22-4.67,1.99-9.4,3.81-14.06,5.82l-.06.1c-.3.09-.56.28-.87.33.17-.14.34-.28.5-.43h.02Z"/>
  <path class="st23" d="M43.67,224.59c.39.11.83-.49,1.12-.48.48-.39,3.41-2.98,3.63-3.06l.07.05-1.59,1.29c-.15.35,1-.7,1.4-1.01l.09.04c1.02-.79,5.03-4.35,5.59-4.66.06.09.14.04.15.04.8.26,4.2.83,5.39,1.21-.02.03,0,.07-.11.15-.21.03-.34.13-.52.21-.1.05-.26.11-.42.18-.08.03-.45.07-.33.22-4.67,1.99-9.4,3.81-14.06,5.82l-.06.1c-.3.09-.56.28-.87.33.17-.14.34-.28.5-.43h.02Z"/>
  <path class="st22" d="M49.72,205.49c-1.35-.47-1.05-.79-.59.12.06.12.41,1.02.62,1.49,0,.02.15.08.31.43,0,.34.21.52.34.81.07.16.22,1.03.62,1.55.35,1,.72,2,1.12,2.97l.12.07c.4.96.74,2.03,1.24,2.9.14.31.28.78.48.92-.57.31-4.57,3.87-5.59,4.66l-.09-.04c-.4.31-1.55,1.35-1.4,1.01l1.59-1.29,5.16-4.36c.04-.13-.43-.13-.53-.19-.97-2.57-2.07-5.08-3.05-7.64-.32-.84-1.22-3.13-1.4-3.77,0-.05-.08-.26.02-.25.32.24.68.41,1.03.6h0Z"/>
  <path class="st23" d="M49.72,205.49c-1.35-.47-1.05-.79-.59.12.06.12.41,1.02.62,1.49,0,.02.15.08.31.43,0,.34.21.52.34.81.07.16.22,1.03.62,1.55.35,1,.72,2,1.12,2.97l.12.07c.4.96.74,2.03,1.24,2.9.14.31.28.78.48.92-.57.31-4.57,3.87-5.59,4.66l-.09-.04c-.4.31-1.55,1.35-1.4,1.01l1.59-1.29,5.16-4.36c.04-.13-.43-.13-.53-.19-.97-2.57-2.07-5.08-3.05-7.64-.32-.84-1.22-3.13-1.4-3.77,0-.05-.08-.26.02-.25.32.24.68.41,1.03.6h0Z"/>
  <path class="st34" d="M49.72,205.49c3.27,1.82,6.39,3.93,9.62,5.81l.07.63-.05.07-4.29-2.77c-.57-.24-1.06-.74-1.67-.95-1.33-.98-2.9-1.81-4.25-2.86l-.07.06c.31.28.54.64.81.96-.31.1.44,1.36.69,1.98.12.31.1.51.11.54l.12.07c.9,2.26,1.68,4.58,2.69,6.8-.5-.87-.84-1.94-1.24-2.9l-.12-.07c-.4-.96-.77-1.97-1.12-2.97-.4-.52-.55-1.39-.62-1.55-.12-.29-.33-.47-.34-.81-.16-.35-.3-.41-.31-.43-.22-.46-.56-1.37-.62-1.49-.46-.91-.76-.6.59-.12h0Z"/>
  <path class="st23" d="M49.72,205.49c3.27,1.82,6.39,3.93,9.62,5.81l.07.63-.05.07-4.29-2.77c-.57-.24-1.06-.74-1.67-.95-1.33-.98-2.9-1.81-4.25-2.86l-.07.06c.31.28.54.64.81.96-.31.1.44,1.36.69,1.98.12.31.1.51.11.54l.12.07c.9,2.26,1.68,4.58,2.69,6.8-.5-.87-.84-1.94-1.24-2.9l-.12-.07c-.4-.96-.77-1.97-1.12-2.97-.4-.52-.55-1.39-.62-1.55-.12-.29-.33-.47-.34-.81-.16-.35-.3-.41-.31-.43-.22-.46-.56-1.37-.62-1.49-.46-.91-.76-.6.59-.12h0Z"/>
  <path class="st30" d="M43.16,225.02c.32-.05.57-.24.87-.33,1.03-.32,2.12-.28,3.19-.39,2.09-.21,4.18-.44,6.27-.69,1.02-.12,2.04-.25,3.06-.33-.1.23-.21.45-.37.66-2,.08-12.15,1.26-13.06,1.17v-.06l.04-.03Z"/>
  <path class="st23" d="M43.16,225.02c.32-.05.57-.24.87-.33,1.03-.32,2.12-.28,3.19-.39,2.09-.21,4.18-.44,6.27-.69,1.02-.12,2.04-.25,3.06-.33-.1.23-.21.45-.37.66-2,.08-12.15,1.26-13.06,1.17v-.06l.04-.03Z"/>
  <path class="st38" d="M66.98,212.23c-.46-.57-.44-.3-.55-.11.2-.91.47-1.89.74-2.81.39-1.34.81-2.68,1.21-4.02.07-.23.14-.47.22-.7.08-.27.24-.52.1-.66l.35-.41c.04-.22-.39.33-.07-.22-.59.42-2.45,2.16-2.72,2.3l-.07-.05c1.11-.93,2.21-1.89,3.34-2.79-.87,3.15-1.67,6.33-2.54,9.48h0Z"/>
  <path class="st23" d="M66.98,212.23c-.46-.57-.44-.3-.55-.11.2-.91.47-1.89.74-2.81.39-1.34.81-2.68,1.21-4.02.07-.23.14-.47.22-.7.08-.27.24-.52.1-.66l.35-.41c.04-.22-.39.33-.07-.22-.59.42-2.45,2.16-2.72,2.3l-.07-.05c1.11-.93,2.21-1.89,3.34-2.79-.87,3.15-1.67,6.33-2.54,9.48h0Z"/>
  <path class="st22" d="M53.12,216.56c.1.06.57.06.53.19l-5.16,4.36-.07-.05c-.22.08-3.15,2.68-3.63,3.06-.29,0-.73.59-1.12.48,3.15-2.68,6.35-5.31,9.46-8.04h0Z"/>
  <path class="st23" d="M53.12,216.56c.1.06.57.06.53.19l-5.16,4.36-.07-.05c-.22.08-3.15,2.68-3.63,3.06-.29,0-.73.59-1.12.48,3.15-2.68,6.35-5.31,9.46-8.04h0Z"/>
  <path class="st34" d="M63.21,208.04c.21.09,1.13-.93,1.25-.94l.23.21c.16,0,1.09-1.03,1.29-1.2.12-.1.27-.11.46-.27.17-.15.58-.7,1.05-.83-2.64,2.37-5.41,4.6-8.08,6.93l-.07-.63c1.35-1.02,2.58-2.17,3.87-3.26h0Z"/>
  <path class="st23" d="M63.21,208.04c.21.09,1.13-.93,1.25-.94l.23.21c.16,0,1.09-1.03,1.29-1.2.12-.1.27-.11.46-.27.17-.15.58-.7,1.05-.83-2.64,2.37-5.41,4.6-8.08,6.93l-.07-.63c1.35-1.02,2.58-2.17,3.87-3.26h0Z"/>
  <path class="st41" d="M66.98,212.23c-.12.43-.76,3.2-.88,3.33-.04.04-.51.19-.61.23-.09-.07-.07-.14-.06-.24.11-.63.84-2.36.88-3.16.05-.12.04-.14.12-.27.11-.19.09-.46.55.11h0Z"/>
  <path class="st23" d="M66.98,212.23c-.12.43-.76,3.2-.88,3.33-.04.04-.51.19-.61.23-.09-.07-.07-.14-.06-.24.11-.63.84-2.36.88-3.16.05-.12.04-.14.12-.27.11-.19.09-.46.55.11h0Z"/>
  <path class="st36" d="M66.17,205.55l.07.05c.27-.14,2.14-1.87,2.72-2.3-.32.55.12,0,.07.22l-.35.41c.13.15-.02.4-.1.66-.01-.56-.33.04-.49.24-.1-.11.1-.15-.11-.13.13-.13.45-.39.53-.5.31-.46-.6.43-1.02.8-.48.13-.88.68-1.05.83-.19.16-.34.17-.46.27-.2.17-1.13,1.19-1.29,1.2l-.23-.21c-.12,0-1.04,1.03-1.25.94.98-.84,1.97-1.67,2.96-2.5v.02h0Z"/>
  <path class="st23" d="M66.17,205.55l.07.05c.27-.14,2.14-1.87,2.72-2.3-.32.55.12,0,.07.22l-.35.41c.13.15-.02.4-.1.66-.01-.56-.33.04-.49.24-.1-.11.1-.15-.11-.13.13-.13.45-.39.53-.5.31-.46-.6.43-1.02.8-.48.13-.88.68-1.05.83-.19.16-.34.17-.46.27-.2.17-1.13,1.19-1.29,1.2l-.23-.21c-.12,0-1.04,1.03-1.25.94.98-.84,1.97-1.67,2.96-2.5v.02h0Z"/>
  <path class="st15" d="M58.15,218.76c.3-.14.31-.21.33-.22.32-.11.36-.16.42-.18.03,0,.12.08.52-.21l.19.02c-.03.05-.05.22-.56,1.05-.35.57-2.27,3.56-2.33,3.86l-.13.05c-1.01.15-2.05.27-3.06.4-2.1.26-4.22.43-6.31.78-1.07.11-2.16.07-3.19.39l.06-.1c4.66-2.01,9.39-3.83,14.06-5.82v-.02h0Z"/>
  <path class="st23" d="M58.15,218.76c.3-.14.31-.21.33-.22.32-.11.36-.16.42-.18.03,0,.12.08.52-.21l.19.02c-.03.05-.05.22-.56,1.05-.35.57-2.27,3.56-2.33,3.86l-.13.05c-1.01.15-2.05.27-3.06.4-2.1.26-4.22.43-6.31.78-1.07.11-2.16.07-3.19.39l.06-.1c4.66-2.01,9.39-3.83,14.06-5.82v-.02h0Z"/>
  <path class="st14" d="M49.89,206.45c3.21,3.83,6.46,7.64,9.68,11.47l.07.12-.11-.02c-1.2-.37-4.6-.94-5.39-1.21l-.15-.04c-.21-.14-.34-.6-.48-.92-1-2.22-1.79-4.54-2.69-6.8l-.12-.07s0-.23-.11-.54c-.25-.62-1-1.88-.69-1.98h-.01Z"/>
  <path class="st23" d="M49.89,206.45c3.21,3.83,6.46,7.64,9.68,11.47l.07.12-.11-.02c-1.2-.37-4.6-.94-5.39-1.21l-.15-.04c-.21-.14-.34-.6-.48-.92-1-2.22-1.79-4.54-2.69-6.8l-.12-.07s0-.23-.11-.54c-.25-.62-1-1.88-.69-1.98h-.01Z"/>
  <path class="st19" d="M67.99,204.7c.21,0,.01.02.11.13-.1.13-.16.26-.25.38-.85,1.19-1.62,2.44-2.39,3.69-.49.5-.71,1.21-1.17,1.68-.45.95-1.2,1.84-1.64,2.77-.17.15-.55.68-.7.94-.17.28-.39.64-.34.86-.6.95-1.24,1.86-1.83,2.81-.07.12-.1.09-.17.2l-.19-.02c.1-.07.08-.12.11-.15l.11.02-.07-.12c.2-.62-.02-2.03-.03-2.77,0-.05.16-.15.16-.36,0-.78-.16-1.82-.18-2.64,2.5-2.37,6.12-5.14,8.48-7.45v.03h-.01Z"/>
  <path class="st23" d="M67.99,204.7c.21,0,.01.02.11.13-.1.13-.16.26-.25.38-.85,1.19-1.62,2.44-2.39,3.69-.49.5-.71,1.21-1.17,1.68-.45.95-1.2,1.84-1.64,2.77-.17.15-.55.68-.7.94-.17.28-.39.64-.34.86-.6.95-1.24,1.86-1.83,2.81-.07.12-.1.09-.17.2l-.19-.02c.1-.07.08-.12.11-.15l.11.02-.07-.12c.2-.62-.02-2.03-.03-2.77,0-.05.16-.15.16-.36,0-.78-.16-1.82-.18-2.64,2.5-2.37,6.12-5.14,8.48-7.45v.03h-.01Z"/>
  <path class="st35" d="M59.42,218.15c-.4.29-.49.19-.52.21.18-.07.31-.17.52-.21Z"/>
  <path class="st23" d="M59.42,218.15c-.4.29-.49.19-.52.21.18-.07.31-.17.52-.21Z"/>
  <path class="st35" d="M58.48,218.54s-.03.08-.33.22c-.12-.16.25-.19.33-.22Z"/>
  <path class="st23" d="M58.48,218.54s-.03.08-.33.22c-.12-.16.25-.19.33-.22Z"/>
  <path class="st35" d="M58.9,218.36c-.06.02-.11.07-.42.18.16-.08.32-.13.42-.18Z"/>
  <path class="st23" d="M58.9,218.36c-.06.02-.11.07-.42.18.16-.08.32-.13.42-.18Z"/>
  <path class="st22" d="M54.13,216.8s-.1.05-.15-.04l.15.04Z"/>
  <path class="st23" d="M54.13,216.8s-.1.05-.15-.04l.15.04Z"/>
  <path class="st35" d="M59.42,211.94c2.67-2.34,5.44-4.56,8.08-6.93.42-.38,1.33-1.26,1.02-.8-.07.11-.4.37-.53.5-2.36,2.31-5.98,5.07-8.48,7.45.02.82.18,1.86.18,2.64,0,.21-.16.31-.16.36,0,.74.23,2.14.03,2.77-3.21-3.83-6.46-7.64-9.68-11.47-.27-.32-.5-.68-.81-.96l.07-.06c1.36,1.05,2.92,1.88,4.25,2.86.61.21,1.1.71,1.67.95l4.29,2.77.05-.07h.02Z"/>
  <path class="st23" d="M59.42,211.94c2.67-2.34,5.44-4.56,8.08-6.93.42-.38,1.33-1.26,1.02-.8-.07.11-.4.37-.53.5-2.36,2.31-5.98,5.07-8.48,7.45.02.82.18,1.86.18,2.64,0,.21-.16.31-.16.36,0,.74.23,2.14.03,2.77-3.21-3.83-6.46-7.64-9.68-11.47-.27-.32-.5-.68-.81-.96l.07-.06c1.36,1.05,2.92,1.88,4.25,2.86.61.21,1.1.71,1.67.95l4.29,2.77.05-.07h.02Z"/>
  <path class="st33" d="M53.53,223.52c1.02-.13,2.05-.25,3.06-.4v.12l-.04.03c-1.02.08-2.04.22-3.06.33l.04-.09h0Z"/>
  <path class="st23" d="M53.53,223.52c1.02-.13,2.05-.25,3.06-.4v.12l-.04.03c-1.02.08-2.04.22-3.06.33l.04-.09h0Z"/>
  <path class="st39" d="M53.53,223.52l-.04.09c-2.09.24-4.18.47-6.27.69,2.09-.35,4.21-.52,6.31-.78Z"/>
  <path class="st23" d="M53.53,223.52l-.04.09c-2.09.24-4.18.47-6.27.69,2.09-.35,4.21-.52,6.31-.78Z"/>
  <path class="st16" d="M66.92,209.23c.21.06-.02.44.24.08-.27.92-.54,1.9-.74,2.81-.08.13-.07.15-.12.27-.21.5-.95,3.31-1.07,3.44-1.01.3-5.01,2.12-5.32,2.19l-.14-.06c.59-.95,1.23-1.87,1.83-2.81,1.41-2.23,2.81-4.46,4.19-6.7.21.27.58.36.61.38.14.1.16.42.51.4h0Z"/>
  <path class="st23" d="M66.92,209.23c.21.06-.02.44.24.08-.27.92-.54,1.9-.74,2.81-.08.13-.07.15-.12.27-.21.5-.95,3.31-1.07,3.44-1.01.3-5.01,2.12-5.32,2.19l-.14-.06c.59-.95,1.23-1.87,1.83-2.81,1.41-2.23,2.81-4.46,4.19-6.7.21.27.58.36.61.38.14.1.16.42.51.4h0Z"/>
  <path class="st22" d="M67.85,205.22c.22.15.28-.14.52.08-.41,1.34-.82,2.68-1.21,4.02-.26.36-.03-.02-.24-.08.12,0,.28-.13.19-.25l-.1.02c-.11-.14-.8-1.02-.92-.98l-.3.43c-1.38,2.25-2.78,4.47-4.19,6.7-.05-.22.17-.58.34-.86.16-.26.54-.79.7-.94.44-.92,1.19-1.82,1.64-2.77.47-.47.68-1.18,1.17-1.68.77-1.24,1.53-2.5,2.39-3.69h0Z"/>
  <path class="st23" d="M67.85,205.22c.22.15.28-.14.52.08-.41,1.34-.82,2.68-1.21,4.02-.26.36-.03-.02-.24-.08.12,0,.28-.13.19-.25l-.1.02c-.11-.14-.8-1.02-.92-.98l-.3.43c-1.38,2.25-2.78,4.47-4.19,6.7-.05-.22.17-.58.34-.86.16-.26.54-.79.7-.94.44-.92,1.19-1.82,1.64-2.77.47-.47.68-1.18,1.17-1.68.77-1.24,1.53-2.5,2.39-3.69h0Z"/>
  <path class="st34" d="M68.59,204.6c-.07.23-.14.47-.22.7-.24-.21-.31.07-.52-.08.09-.12.15-.26.25-.38.16-.2.48-.8.49-.24h0Z"/>
  <path class="st23" d="M68.59,204.6c-.07.23-.14.47-.22.7-.24-.21-.31.07-.52-.08.09-.12.15-.26.25-.38.16-.2.48-.8.49-.24h0Z"/>
  <path class="st33" d="M66.31,212.4c-.04.79-.76,2.53-.88,3.16-.02.09-.03.17.06.24l-.13.05h-.12c.13-.14.86-2.95,1.07-3.45h0Z"/>
  <path class="st23" d="M66.31,212.4c-.04.79-.76,2.53-.88,3.16-.02.09-.03.17.06.24l-.13.05h-.12c.13-.14.86-2.95,1.07-3.45h0Z"/>
  <path class="st37" d="M66.92,209.23c-.35.02-.37-.3-.51-.4-.03-.02-.4-.11-.61-.38l.3-.43c.12-.04.81.85.92.98l.1-.02c.09.12-.07.24-.19.25h0Z"/>
  <path class="st23" d="M66.92,209.23c-.35.02-.37-.3-.51-.4-.03-.02-.4-.11-.61-.38l.3-.43c.12-.04.81.85.92.98l.1-.02c.09.12-.07.24-.19.25h0Z"/>
</svg>