<?xml version="1.0" encoding="UTF-8"?>
<svg xmlns="http://www.w3.org/2000/svg" version="1.1" viewBox="0 0 612 792">
  <defs>
    <style>
      .cls-1 {
        fill: none;
      }

      .cls-1, .cls-2, .cls-3, .cls-4, .cls-5, .cls-6, .cls-7, .cls-8 {
        stroke: #231f20;
        stroke-miterlimit: 10;
      }

      .cls-9, .cls-2 {
        fill: #b43b8b;
      }

      .cls-10, .cls-5, .cls-8 {
        fill: #231f20;
      }

      .cls-3, .cls-4, .cls-7 {
        fill: #fff;
      }

      .cls-3, .cls-5 {
        stroke-width: 3px;
      }

      .cls-4 {
        stroke-width: 5px;
      }

      .cls-6 {
        fill: #b4378e;
      }
    </style>
  </defs>
  <!-- Generator: Adobe Illustrator 28.7.1, SVG Export Plug-In . SVG Version: 1.2.0 Build 142)  -->
  <g>
    <g id="Layer_3">
      <g>
        <path class="cls-8" d="M337.54,465.55c-2.82,4.13-3.6,4.39-6.29,8.2-2.45,3.47-4.32,7.23-6.18,10.97-9.86,19.82-19.7,39.87-24.48,61.13-5.7,25.34-4.01,51.48-2.3,77.28-3.12,3.6-4.57,6.18-7.11,8.75-8.55,8.66-15.13,19.63-18.97,30.64-2.46,7.05-2.19,15.53-2.23,22.91-.04,6.69-.05,13.84.96,19.09.64,3.32-.6,7.02,1.97,9.48,2.71-2.66,4.5-5.93,6.43-9.08,4.83-7.89,10.88-15.26,18.52-21.13s13.08-11.58,27.28-10.62c5.22.35,9.11.05,13.65.42,4.3.35,8.6.7,12.89,1.05,7.19.58,14.6,1.23,20.95,4.28,7.79,3.75,12.99,10.66,17.05,17.67s7.32,14.47,12.73,20.72c3.37-14.98,4.67-28.25,3.46-46.82-.56-9.97-2.98-19.8-8.98-27.55-4.81-6.22-10.75-12.64-16.09-17.19,3.18-28.16,2.56-56.35-3.78-83.6s-18.45-53.54-36.13-76.26c.89-9.96.89-19.89,1.16-29.93.03-1.08-.26-2.45-1.44-2.72-.82-.19-1.68.33-2.06,1s-.41,1.46-.42,2.21c-.19,9.21-.38,19.89-.58,29.09"/>
        <path class="cls-4" d="M340.61,465.8c40.3,60.56,52.05,125.32,23.54,204.28-11.78-.8-26.29-1.41-38.4-1.41-5.74,0-11.47-.19-15.37-.34-8.52-29.24-13.06-54.5-13.62-83.02-.56-28.52,5.05-58.35,17.89-84.69,4.78-9.8,8.57-17.48,15.76-28.07,1.66-2.45,3.32-4.89,3.32-4.89.42-.57,1.56-1.99,1.96-2.57s.78-1.23.8-1.85c.29-9.27.08-18.36.95-29.5.16-2.02,1.86-1.76,3.23-1.32,3.14,1.01-1.1,24.94-.04,33.55"/>
        <rect class="cls-3" x="312.23" y="671.88" width="47.84" height="17.64"/>
        <rect class="cls-5" x="312.65" y="679.16" width="46.96" height="7.7"/>
        <path class="cls-10" d="M337.38,470.84c12.75,17.83,23.03,37.31,30.45,57.74-15.87,4.69-43.01,3.6-59.5,1.07,4.42-20.47,17.32-42.9,28.6-58.11"/>
        <path class="cls-9" d="M337.19,471.16c-1.67,1.68-6.37,8.97-7.36,10.9-.9,1.77-5.44,8.02-6.57,10.03-6.07,10.74-11.09,21.74-13.87,33.54,3.54.39,13.49.48,15.58.5,4.75.05,10.06,0,14.65.29.06-1.13.05-11.21-.37-15.14-1.35-12.53-.84-24.32-1.89-37.93"/>
        <path class="cls-1" d="M376.38,633.76c-.03.15-.05.3-.08.45.09-.53-.39-4.27.24-6.05,14.87,11.86,24.95,28.84,25.67,46.62.16,3.81.99,8.61.73,12.42-.45,6.5-.89,13-1.34,19.49"/>
        <path class="cls-1" d="M380.49,574.05c.12-37.67-17.47-72.84-38.28-105.5l-.58-1.03"/>
        <path class="cls-7" d="M377.34,635.48c5.48,4.04,10.23,9.17,13.4,15.15,2.29,4.33,4.33,8.37,5.56,13.11,2.68,10.34,3.02,22.46,1.69,33.05-4.25-7.02-9.81-19.27-17.57-22.88-1.82-.85-6.77-3.17-8.9-4.06l-.44,2.61c5.14,2.26,9.55,5.54,13.2,9.5,3.52,3.82,6.31,8.22,9.09,12.59,2.26,3.56,5.37,9.65,6.35,13.73.4-1.55,1.21-12.59,1.39-16,.58-11.43.16-23.06-3.21-34-3.37-10.95-9.95-21.22-19.68-27.43.11,1.49-.87,3.23-.76,4.72"/>
        <path class="cls-7" d="M299.44,635.91c.09-1.25-1.28-2.32-1.39-3.59-8.15,5.21-18.06,20.21-20.89,29.4-2.83,9.19-3.18,18.96-2.69,28.55.13,2.66-.49,6.07.14,8.66.41.92.02,5.64.34,6.88.82-3.43,4.12-10.65,6-13.64,2.32-3.67,4.66-7.37,7.61-10.57,3.06-3.33,6.76-6.08,11.06-7.98-.12-.73-.24-1.46-.36-2.19-1.78.74-6.21,3.44-7.74,4.61-1.03.79-4.19,4.12-5.12,5.02-4.98,4.79-6.02,7.53-9.58,13.43-1.11-8.89-.56-19.51,1.69-28.19,1.03-3.98,7.55-16.25,10.42-19.17,1.54-1.8,2.66-3.23,4.19-5.02.41-.48,5.26-5.04,5.45-5.31.2-.29.78-.81.78-.81"/>
        <path class="cls-8" d="M305.89,532.59c32.16,6.18,59.58-1.24,61.07-.24,2.79,1.87,6.19,17.52,7.59,26.26.84,5.26,5.49,31.92-.03,58.33-8.14,38.92-13.99,47.79-14.85,48.61-1.74,1.64-43.85.79-45.57-.35-2.12-1.41-3.24-5.42-3.65-7.72-2.59-14.63-9.09-44.49-10.34-61.05-.48-6.4.17-27.15.8-31.69.52-3.73.71-6.6,1.46-12.18.55-4.05,1.22-11.43,2.73-15.59,0,0,.28-3.1.98-4.51"/>
        <g>
          <path class="cls-3" d="M336.23,722.29c3.31-2.35,4.53-6.15,6.44-9.51,1.78-3.13,2.33-7.45,2.41-11.22.44-20.57-.59-40.56-.14-61.69.26-11.92.85-23.21-1.89-33.29-.78-2.88-3.9-5.48-7.23-5.36-2.16.08-4.05,1.44-5.14,3.11s-1.74,3.59-1.8,5.51c-.31,10.46-.06,21.26.27,31.91.39,12.65.62,30.1.62,30.1,0,0-.26,15.72-.82,20.6-.41,3.58-.7,7.91-.51,11.5.36,6.82,3.2,13.52,7.99,18.85"/>
          <path class="cls-6" d="M337.42,712.94c-1.63-4.86-1.52-10.02-1.47-15.09.27-26.11-1.37-52.21-2.11-78.32-.11-4.01-.17-8.19,1.81-11.79.51-.92,1.53-1.92,2.61-1.55.75.26,1.04,1.06,1.22,1.77,3.38,13.39,1.25,37.12,1.77,42.39,0,0-.15,16.46-.29,22.57-.21,9.25-.32,19.95-1.02,29.18-.25,3.33-1.61,7.65-2.31,10.93"/>
          <path class="cls-8" d="M340.01,610.54c-.1.36,1.45,13.05,1.34,19.54-.09,5.82-.04,11.75-.25,17.56-.59,15.72-1.01,31.2-.97,46.93.02,5.8-.03,11.71-1.95,17.26.68-3.74-.63-6.67-.99-10.45-.17-1.73.32-3.47.51-5.2,1.74-15.66.9-32.16,1.15-47.9.2-12.26.94-25.54,1.14-37.8"/>
        </g>
        <ellipse class="cls-3" cx="335.91" cy="567.21" rx="27.25" ry="24.28"/>
        <ellipse class="cls-2" cx="335.91" cy="567.43" rx="24.34" ry="21.45"/>
        <polygon class="cls-7" points="335.91 553.39 339.35 563.68 350.49 563.68 341.48 570.05 344.92 580.34 335.91 573.98 326.91 580.34 330.35 570.05 321.34 563.68 332.47 563.68 335.91 553.39"/>
      </g>
    </g>
  </g>
</svg>